<svg width="30" height="30" viewBox="0 0 30 30" fill="none" xmlns="http://www.w3.org/2000/svg">
<path fill-rule="evenodd" clip-rule="evenodd" d="M12.8867 2.81248H17.1135C17.384 2.81231 17.6196 2.81216 17.8422 2.84769C18.7213 2.98807 19.482 3.53639 19.8932 4.326C19.9973 4.52587 20.0717 4.74947 20.1571 5.00613L20.2966 5.42476C20.3202 5.49562 20.327 5.51568 20.3327 5.53148C20.5516 6.13662 21.1191 6.5457 21.7624 6.562C21.7793 6.56243 21.8 6.5625 21.8751 6.5625H25.6251C26.1429 6.5625 26.5626 6.98223 26.5626 7.5C26.5626 8.01777 26.1429 8.4375 25.6251 8.4375H4.375C3.85723 8.4375 3.4375 8.01777 3.4375 7.5C3.4375 6.98223 3.85723 6.5625 4.375 6.5625H8.1251C8.20016 6.5625 8.22088 6.56243 8.23779 6.562C8.88111 6.5457 9.44863 6.13665 9.66753 5.53151C9.67329 5.5156 9.6799 5.49597 9.70364 5.42476L9.84315 5.00616C9.92852 4.74951 10.0029 4.52587 10.107 4.326C10.5182 3.53639 11.2789 2.98807 12.158 2.84769C12.3806 2.81216 12.6162 2.81231 12.8867 2.81248ZM11.2602 6.5625C11.3246 6.43622 11.3816 6.305 11.4307 6.1693C11.4456 6.1281 11.4602 6.08423 11.479 6.02787L11.6038 5.65361C11.7177 5.31172 11.744 5.24199 11.77 5.192C11.9071 4.9288 12.1607 4.74603 12.4537 4.69923C12.5094 4.69034 12.5838 4.6875 12.9442 4.6875H17.056C17.4164 4.6875 17.4909 4.69034 17.5465 4.69923C17.8396 4.74603 18.0931 4.9288 18.2302 5.192C18.2562 5.24199 18.2825 5.31171 18.3964 5.65361L18.5211 6.02765L18.5695 6.16933C18.6186 6.30502 18.6756 6.43623 18.74 6.5625H11.2602Z" fill="white"/>
<path d="M7.39386 10.5626C7.35942 10.046 6.9127 9.65514 6.39608 9.68958C5.87946 9.72402 5.48857 10.1707 5.52302 10.6874L6.10233 19.377C6.2092 20.9805 6.29552 22.2756 6.49799 23.292C6.70848 24.3486 7.06651 25.2312 7.806 25.923C8.5455 26.6149 9.44993 26.9134 10.5182 27.0531C11.5458 27.1875 12.8438 27.1875 14.4508 27.1875H15.5494C17.1563 27.1875 18.4544 27.1875 19.482 27.0531C20.5503 26.9134 21.4547 26.6149 22.1942 25.923C22.9337 25.2312 23.2917 24.3486 23.5022 23.292C23.7047 22.2756 23.791 20.9805 23.8979 19.3771L24.4772 10.6874C24.5116 10.1707 24.1208 9.72402 23.6041 9.68958C23.0875 9.65514 22.6408 10.046 22.6063 10.5626L22.0314 19.1865C21.9191 20.8713 21.8391 22.0436 21.6634 22.9256C21.4929 23.7812 21.255 24.2341 20.9132 24.5538C20.5715 24.8736 20.1038 25.0808 19.2388 25.194C18.347 25.3106 17.172 25.3125 15.4835 25.3125H14.5168C12.8282 25.3125 11.6532 25.3106 10.7614 25.194C9.89644 25.0808 9.42874 24.8736 9.08697 24.5538C8.74521 24.2341 8.50729 23.7812 8.33685 22.9256C8.16114 22.0436 8.08111 20.8713 7.96879 19.1865L7.39386 10.5626Z" fill="white"/>
<path d="M11.7818 12.8172C12.297 12.7656 12.7564 13.1415 12.808 13.6567L13.433 19.9067C13.4845 20.4219 13.1086 20.8813 12.5934 20.9328C12.0782 20.9844 11.6188 20.6085 11.5673 20.0933L10.9423 13.8433C10.8907 13.3281 11.2666 12.8687 11.7818 12.8172Z" fill="white"/>
<path d="M18.2184 12.8172C18.7336 12.8687 19.1095 13.3281 19.058 13.8433L18.433 20.0933C18.3814 20.6085 17.922 20.9844 17.4068 20.9328C16.8916 20.8813 16.5157 20.4219 16.5673 19.9067L17.1923 13.6567C17.2438 13.1415 17.7032 12.7656 18.2184 12.8172Z" fill="white"/>
</svg>
