<svg width="18" height="18" viewBox="0 0 18 18" fill="none" xmlns="http://www.w3.org/2000/svg">
<path d="M16.0466 10.9187L16.2146 9.35605C16.3043 8.52232 16.3635 7.97178 16.3171 7.62491L16.3333 7.625C17.0927 7.625 17.7083 7.00939 17.7083 6.25C17.7083 5.49061 17.0927 4.875 16.3333 4.875C15.5739 4.875 14.9583 5.49061 14.9583 6.25C14.9583 6.59344 15.0842 6.90747 15.2924 7.14845C14.9935 7.33292 14.6028 7.72217 14.0146 8.30805C13.5615 8.75942 13.3349 8.9851 13.0822 9.02005C12.9421 9.03941 12.7994 9.0195 12.6701 8.96256C12.4367 8.85979 12.2811 8.58079 11.9699 8.0228L10.3295 5.08161C10.1376 4.73739 9.97687 4.44927 9.83199 4.21743C10.4263 3.91422 10.8333 3.2963 10.8333 2.58333C10.8333 1.57081 10.0125 0.75 8.99996 0.75C7.98744 0.75 7.16663 1.57081 7.16663 2.58333C7.16663 3.2963 7.57361 3.91422 8.16793 4.21743C8.02304 4.44929 7.86238 4.73735 7.67038 5.08162L6.03001 8.0228C5.71881 8.58079 5.5632 8.85979 5.32982 8.96256C5.2005 9.0195 5.05781 9.03941 4.91777 9.02005C4.66502 8.9851 4.43846 8.75942 3.98533 8.30805C3.39717 7.72218 3.00639 7.33292 2.70753 7.14845C2.91571 6.90747 3.04163 6.59344 3.04163 6.25C3.04163 5.49061 2.42602 4.875 1.66663 4.875C0.907234 4.875 0.291626 5.49061 0.291626 6.25C0.291626 7.00939 0.907234 7.625 1.66663 7.625L1.68286 7.62491C1.63639 7.97178 1.69561 8.52231 1.78529 9.35605L1.95336 10.9187C2.04666 11.786 2.12424 12.6113 2.21926 13.3542H15.7807C15.8757 12.6113 15.9533 11.786 16.0466 10.9187Z" fill="#007AFF"/>
<path d="M8.00268 17.25H9.99724C12.5968 17.25 13.8966 17.25 14.7639 16.4737C15.1424 16.1349 15.3821 15.5241 15.5551 14.7292H2.44484C2.6178 15.5241 2.8575 16.1349 3.23603 16.4737C4.10328 17.25 5.40308 17.25 8.00268 17.25Z" fill="#007AFF"/>
</svg>
