<svg width="244" height="216" viewBox="0 0 244 216" fill="none" xmlns="http://www.w3.org/2000/svg">
<path fill-rule="evenodd" clip-rule="evenodd" d="M75.5125 56.8058C79.4034 56.8058 82.5574 59.9658 82.5574 63.8642C82.5574 67.7626 79.4034 70.9226 75.5125 70.9226H49.6835V85.0393H75.5125C79.4034 85.0393 82.5574 88.1998 82.5574 92.0977C82.5574 95.9961 79.4034 99.1566 75.5125 99.1566H50.1388C53.5906 125.708 76.2506 146.213 103.69 146.213C108.658 146.213 113.469 145.541 118.038 144.283C118.061 137.839 118.194 131.518 118.922 126.09C119.944 118.478 122.484 109.397 130.051 101.814C131.015 100.849 132.002 99.9658 133.008 99.1566H117.779C113.888 99.1566 110.734 95.9961 110.734 92.0977C110.734 88.1998 113.888 85.0393 117.779 85.0393H157.697V70.9226H117.779C113.888 70.9226 110.734 67.7626 110.734 63.8642C110.734 59.9658 113.888 56.8058 117.779 56.8058H157.242C153.79 30.2539 131.13 9.74916 103.69 9.74916C76.2506 9.74916 53.5906 30.2539 50.1388 56.8058H75.5125ZM183.457 112.004C177.595 135.667 161.52 155.288 140.191 165.9V149.802C140.191 149.771 140.191 149.741 140.191 149.71C153.753 141.065 164.056 127.744 168.84 112.012C171.624 111.975 174.691 111.975 178.08 111.975C180.142 111.975 181.909 111.975 183.457 112.004ZM153.348 113.408C150.179 114.224 147.725 115.505 145.719 117.514C142.52 120.72 141.172 125.057 140.604 131.599C146.015 126.52 150.383 120.337 153.348 113.408ZM118.034 158.813V168.716C118.034 168.967 118.034 169.218 118.034 169.469V169.852C118.033 170.967 118.033 172.083 118.035 173.196C115.636 173.62 113.201 173.939 110.734 174.149V195.622C110.734 199.52 107.58 202.68 103.69 202.68C99.7998 202.68 96.6459 199.52 96.6459 195.622V174.149C54.5544 170.568 21.5061 135.2 21.5061 92.0977V82.6869C21.5061 78.7885 24.66 75.628 28.5505 75.628C32.441 75.628 35.5948 78.7885 35.5948 82.6869V92.0977C35.5948 129.781 66.0819 160.33 103.69 160.33C108.611 160.33 113.409 159.807 118.034 158.813Z" fill="#F0F7FF"/>
<path fill-rule="evenodd" clip-rule="evenodd" d="M196.814 206.543H177.939C160.144 206.543 151.247 206.543 145.719 201.003C140.191 195.464 140.191 186.548 140.191 168.716V149.802C140.191 131.97 140.191 123.054 145.719 117.514C151.247 111.975 160.191 111.975 178.08 111.975C180.94 111.975 183.231 111.975 185.159 112.054C185.095 112.431 185.063 112.817 185.061 113.206L185.017 126.609C185.017 131.797 185.017 136.381 185.512 140.077C186.05 144.082 187.284 148.087 190.545 151.356C193.808 154.624 197.804 155.86 201.801 156.399C205.489 156.896 210.064 156.895 215.241 156.895H215.688H234.362C234.563 159.421 234.563 162.522 234.563 166.649V168.716C234.563 186.548 234.563 195.464 229.035 201.003C223.506 206.543 214.609 206.543 196.814 206.543ZM155.526 171.08C155.526 169.121 157.11 167.534 159.065 167.534H196.814C198.769 167.534 200.353 169.121 200.353 171.08C200.353 173.038 198.769 174.626 196.814 174.626H159.065C157.11 174.626 155.526 173.038 155.526 171.08ZM155.526 187.629C155.526 185.671 157.11 184.083 159.065 184.083H185.018C186.972 184.083 188.556 185.671 188.556 187.629C188.556 189.588 186.972 191.176 185.018 191.176H159.065C157.11 191.176 155.526 189.588 155.526 187.629Z" fill="#F0F7FF"/>
<path d="M222.067 138.533L203.387 121.686C198.065 116.886 195.404 114.486 192.139 113.231L192.095 126.16C192.095 137.305 192.095 142.878 195.551 146.34C199.006 149.803 204.567 149.803 215.688 149.803H232.581C230.87 146.473 227.807 143.71 222.067 138.533Z" fill="#F0F7FF"/>
</svg>
