<svg width="375" height="401" viewBox="0 0 375 401" fill="none" xmlns="http://www.w3.org/2000/svg">
<path d="M25.335 331.617L65.8725 331.437L106.417 331.37L187.5 331.242L268.583 331.37L309.128 331.437L349.665 331.617L309.128 331.805L268.583 331.865L187.5 331.992L106.417 331.865L65.8725 331.805L25.335 331.617Z" fill="#263238"/>
<path d="M346.103 275.523C338.385 285.971 330.353 298.098 328.38 311.208C328.38 311.403 328.68 311.471 328.725 311.268C329.61 307.691 330.751 304.182 332.138 300.768C337.208 299.373 342.187 298.226 344.85 293.193C347.572 288.018 347.22 281.268 346.71 275.628C346.673 275.358 346.26 275.358 346.103 275.523Z" fill="#69A10A"/>
<path d="M332.25 300.678C335.715 292.901 340.163 285.093 345.825 278.696C345.863 278.651 345.923 278.696 345.885 278.756C342.18 283.308 339.368 288.273 336.623 293.321C339.173 290.726 341.978 288.401 344.393 285.656C344.438 285.603 344.52 285.656 344.475 285.731C342.068 288.618 339.443 291.731 336.315 293.883C335.475 295.428 334.628 296.988 333.765 298.541C333.975 298.421 334.193 298.316 334.41 298.211C334.448 298.211 334.485 298.211 334.448 298.263C334.208 298.391 333.968 298.518 333.698 298.623C333.293 299.373 332.895 300.123 332.475 300.821C332.452 300.838 332.424 300.848 332.395 300.849C332.366 300.85 332.338 300.842 332.313 300.827C332.289 300.811 332.27 300.789 332.259 300.762C332.247 300.736 332.244 300.706 332.25 300.678Z" fill="#263238"/>
<path d="M334.793 297.963C336.866 296.799 338.846 295.478 340.718 294.011C340.763 293.973 340.838 294.011 340.785 294.086C338.976 295.651 336.993 297.002 334.875 298.113C334.855 298.124 334.832 298.127 334.81 298.12C334.788 298.114 334.77 298.099 334.759 298.079C334.748 298.059 334.745 298.036 334.752 298.014C334.758 297.992 334.773 297.974 334.793 297.963Z" fill="#263238"/>
<path d="M327.488 309.258C327.488 309.416 327.773 309.416 327.773 309.258C327.81 304.946 327.773 300.611 327.84 296.276C328.95 294.026 331.32 292.803 332.97 291.026C334.157 289.721 335.188 288.284 336.045 286.743C338.033 283.057 339.25 279.005 339.623 274.833C340.073 270.221 338.325 254.988 336.375 255.513C335.37 255.791 332.1 263.336 331.238 265.826C329.836 269.94 328.806 274.172 328.163 278.471C326.588 288.611 326.715 299.036 327.488 309.258Z" fill="#69A10A"/>
<path d="M327.458 290.636C327.69 285.176 328.92 279.663 330.075 274.368C331.313 268.661 332.768 263.291 335.7 258.198C335.711 258.178 335.729 258.164 335.751 258.157C335.773 258.151 335.796 258.153 335.816 258.164C335.836 258.175 335.851 258.194 335.857 258.216C335.864 258.237 335.861 258.261 335.85 258.281C333.898 262.24 332.388 266.403 331.35 270.693C331.545 270.386 331.785 270.093 331.988 269.801C332.07 269.688 332.258 269.801 332.183 269.913C331.917 270.374 331.608 270.809 331.26 271.211H331.223C330.21 275.291 329.49 279.461 328.868 283.623L329.003 283.466C329.005 283.461 329.009 283.457 329.014 283.454C329.018 283.451 329.023 283.449 329.028 283.448C329.034 283.447 329.039 283.447 329.044 283.448C329.049 283.449 329.054 283.451 329.059 283.454C329.063 283.457 329.067 283.461 329.07 283.466C329.073 283.47 329.075 283.475 329.076 283.48C329.077 283.485 329.077 283.491 329.076 283.496C329.075 283.501 329.073 283.506 329.07 283.511C328.995 283.646 328.905 283.788 328.823 283.923C328.508 286.038 328.215 288.146 327.93 290.231C331.68 287.021 334.898 283.233 336.713 278.561C336.713 278.561 336.758 278.561 336.713 278.561C334.943 283.406 332.145 287.711 327.84 290.651C327.758 291.213 327.683 291.776 327.6 292.338C327.6 292.451 327.398 292.421 327.398 292.338C327.398 291.843 327.398 291.341 327.443 290.838C327.428 290.825 327.416 290.809 327.409 290.791C327.401 290.772 327.398 290.753 327.4 290.733C327.401 290.714 327.407 290.695 327.417 290.678C327.427 290.661 327.441 290.646 327.458 290.636Z" fill="#263238"/>
<path d="M329.25 282.723C332.191 278.561 334.756 274.147 336.915 269.531C336.915 269.478 337.028 269.531 337.005 269.531C335.286 274.396 332.702 278.912 329.378 282.858C329.31 282.918 329.175 282.813 329.25 282.723Z" fill="#263238"/>
<path d="M333.053 268.473C334.238 266.366 335.498 264.318 336.615 262.166C336.615 262.106 336.728 262.166 336.705 262.218C335.788 264.461 334.624 266.594 333.233 268.578C333.217 268.599 333.195 268.612 333.169 268.617C333.144 268.622 333.118 268.618 333.096 268.605C333.074 268.592 333.057 268.572 333.049 268.547C333.041 268.523 333.042 268.497 333.053 268.473Z" fill="#263238"/>
<path d="M324.57 296.778C324.511 299.637 324.172 302.483 323.558 305.276L323.693 306.206C324.564 303.118 325.068 299.939 325.193 296.733C325.218 296.689 325.232 296.638 325.232 296.587C325.232 296.536 325.218 296.485 325.193 296.441C325.325 292.143 325.019 287.843 324.278 283.608C322.943 275.681 320.018 268.068 314.49 262.121C314.444 262.081 314.389 262.053 314.331 262.038C314.272 262.023 314.211 262.021 314.151 262.034C314.092 262.046 314.036 262.072 313.988 262.109C313.94 262.146 313.902 262.194 313.875 262.248C311.625 267.926 312.42 274.698 314.325 280.361C315.374 283.419 316.864 286.307 318.75 288.933C320.61 291.603 323.025 293.861 324.57 296.778Z" fill="#69A10A"/>
<path d="M315.143 264.753C320.393 273.266 324.03 283.353 324.48 293.403C324.48 293.583 324.188 293.628 324.158 293.441C324.038 292.541 323.903 291.648 323.753 290.756C321.473 288.743 319.473 286.435 317.805 283.893C317.798 283.883 317.795 283.871 317.797 283.859C317.8 283.847 317.806 283.836 317.816 283.829C317.826 283.822 317.839 283.82 317.85 283.822C317.862 283.824 317.873 283.831 317.88 283.841C319.678 286.049 321.607 288.147 323.655 290.126C323.28 287.876 322.838 285.716 322.313 283.563C322.17 283.398 322.035 283.233 321.893 283.076C321.75 282.918 321.953 282.813 322.05 282.918L322.178 283.061C321.44 280.105 320.523 277.197 319.433 274.353C318.105 272.763 316.613 271.391 315.638 269.471C315.635 269.466 315.634 269.461 315.633 269.456C315.632 269.451 315.633 269.446 315.634 269.441C315.636 269.436 315.638 269.432 315.641 269.428C315.644 269.424 315.648 269.421 315.653 269.418C315.657 269.416 315.662 269.414 315.667 269.414C315.672 269.413 315.677 269.413 315.682 269.415C315.687 269.416 315.691 269.418 315.695 269.422C315.699 269.425 315.703 269.429 315.705 269.433C316.461 270.546 317.272 271.619 318.135 272.651C318.488 273.056 318.885 273.401 319.238 273.828C318.027 270.737 316.59 267.739 314.94 264.858C314.936 264.833 314.94 264.808 314.951 264.785C314.963 264.762 314.981 264.744 315.003 264.732C315.026 264.721 315.051 264.716 315.076 264.72C315.101 264.724 315.124 264.735 315.143 264.753Z" fill="#263238"/>
<path d="M316.2 275.253C317.895 277.503 319.83 279.708 321.405 282.063C321.45 282.131 321.353 282.198 321.293 282.146C319.282 280.095 317.534 277.802 316.088 275.321C316.043 275.246 316.155 275.186 316.2 275.253Z" fill="#263238"/>
<path d="M321.638 282.596L321.713 282.663C321.765 282.716 321.713 282.791 321.638 282.746L321.563 282.671C321.51 282.618 321.593 282.543 321.638 282.596Z" fill="#263238"/>
<path d="M306.93 281.111C307.544 285.868 309.457 290.365 312.458 294.108C313.696 295.576 315.229 296.766 316.958 297.603C318.9 298.571 320.933 299.673 322.958 300.461C323.91 302.884 324.618 305.397 325.073 307.961C325.14 307.743 325.208 307.518 325.268 307.293C323.978 296.216 316.808 286.743 307.635 280.661C307.563 280.604 307.475 280.57 307.383 280.566C307.291 280.561 307.2 280.585 307.122 280.635C307.045 280.684 306.985 280.757 306.95 280.842C306.916 280.927 306.909 281.021 306.93 281.111Z" fill="#69A10A"/>
<path d="M310.095 284.358C310.035 284.298 310.095 284.186 310.193 284.238C315.232 287.984 319.25 292.936 321.878 298.638C321.945 298.788 321.735 298.923 321.653 298.773C321.225 298.023 320.79 297.273 320.348 296.583C318.255 296.193 316.275 294.716 314.723 293.321C314.678 293.283 314.723 293.223 314.783 293.261C315.584 293.988 316.474 294.613 317.43 295.121C318.299 295.516 319.188 295.866 320.093 296.171C319.343 294.941 318.503 293.763 317.663 292.616C315.401 291.754 313.28 290.561 311.37 289.076C311.31 289.031 311.37 288.933 311.43 288.978C313.322 290.124 315.275 291.165 317.28 292.098C315.999 290.415 314.619 288.81 313.148 287.291C312.435 286.916 311.715 286.541 311.025 286.136C310.965 286.098 311.025 286.001 311.07 286.023C311.642 286.227 312.188 286.496 312.698 286.826C311.865 286.016 311.01 285.191 310.095 284.358Z" fill="#263238"/>
<path d="M310.29 288.213C310.415 288.285 310.533 288.368 310.643 288.461C310.68 288.461 310.643 288.536 310.605 288.521C310.475 288.461 310.349 288.391 310.23 288.311C310.17 288.273 310.23 288.168 310.29 288.213Z" fill="#263238"/>
<path d="M339.563 331.976H314.43L316.455 309.086L316.905 304.038H337.088L337.538 309.086L339.563 331.976Z" fill="#455A64"/>
<path d="M337.538 309.086H316.455L316.905 304.038H337.088L337.538 309.086Z" fill="#263238"/>
<path d="M338.288 300.506H315.698V305.501H338.288V300.506Z" fill="#455A64"/>
<path d="M323.115 134.862L291.877 280.587C291.464 282.513 290.329 284.208 288.706 285.324C287.083 286.44 285.094 286.892 283.147 286.587L212.377 274.115C210.762 273.832 209.3 272.984 208.252 271.722L205.395 268.28C206.441 269.542 207.904 270.388 209.52 270.665L280.282 283.145C282.229 283.449 284.218 282.997 285.841 281.882C287.464 280.766 288.599 279.071 289.012 277.145L320.25 131.42C320.491 130.349 320.484 129.237 320.231 128.168C319.977 127.1 319.484 126.104 318.787 125.255L321.652 128.705C322.349 129.552 322.843 130.547 323.097 131.614C323.35 132.681 323.356 133.792 323.115 134.862Z" fill="#263238"/>
<path d="M314.647 122.862L243.885 110.382C241.94 110.078 239.952 110.53 238.33 111.646C236.707 112.762 235.574 114.457 235.162 116.382L203.925 262.137C203.706 263.068 203.679 264.033 203.844 264.974C204.01 265.915 204.365 266.813 204.888 267.613C205.412 268.412 206.092 269.097 206.888 269.626C207.685 270.154 208.58 270.516 209.52 270.687L280.282 283.167C282.229 283.472 284.218 283.02 285.841 281.904C287.464 280.788 288.599 279.093 289.012 277.167L320.25 131.42C320.471 130.489 320.5 129.522 320.335 128.579C320.17 127.636 319.814 126.737 319.29 125.936C318.766 125.135 318.084 124.449 317.285 123.921C316.487 123.392 315.59 123.032 314.647 122.862ZM273.525 121.685C273.554 121.555 273.631 121.441 273.741 121.365C273.851 121.29 273.986 121.26 274.117 121.28L282.12 122.69C282.185 122.701 282.247 122.724 282.303 122.76C282.358 122.796 282.406 122.843 282.442 122.897C282.479 122.952 282.504 123.014 282.516 123.079C282.527 123.144 282.525 123.211 282.51 123.275C282.481 123.407 282.403 123.522 282.291 123.597C282.179 123.673 282.043 123.702 281.91 123.68L273.907 122.27C273.843 122.258 273.782 122.234 273.727 122.198C273.672 122.162 273.626 122.115 273.59 122.06C273.554 122.005 273.53 121.944 273.519 121.879C273.507 121.815 273.51 121.749 273.525 121.685ZM315 133.505C315 133.655 315 133.812 314.595 136.152L314.07 138.605L304.147 184.895L302.925 190.572L302.272 193.64L301.95 195.14L297.157 217.505L295.942 223.19L294.338 230.645L294.022 232.145L289.253 254.382L288.937 255.882L288.532 257.757L285.817 270.432L285.51 271.872C284.685 275.712 281.152 278.307 277.597 277.685L214.29 266.525C210.742 265.895 208.537 262.287 209.362 258.455L238.455 122.75C239.302 118.775 240.48 116.862 241.905 116C243.33 115.137 244.905 115.362 246.63 115.67L259.32 117.92C260.07 118.055 260.475 119 260.25 120.035L260.152 120.485C259.635 122.922 260.962 123.155 262.882 123.485L266.632 124.137L291.945 128.6C293.588 128.892 294.945 129.117 295.432 126.687L295.53 126.237C295.588 125.926 295.713 125.631 295.895 125.372C296.078 125.113 296.314 124.897 296.588 124.737C296.801 124.624 297.046 124.582 297.285 124.617L309.96 126.867C311.422 127.069 312.791 127.704 313.89 128.69C314.7 129.605 315.15 131.045 315 133.505Z" fill="#37474F"/>
<path d="M282.51 123.275C282.481 123.407 282.403 123.522 282.291 123.597C282.179 123.673 282.043 123.702 281.91 123.68L273.907 122.27C273.843 122.258 273.782 122.234 273.727 122.198C273.672 122.162 273.626 122.115 273.59 122.06C273.554 122.005 273.53 121.944 273.519 121.879C273.507 121.815 273.51 121.749 273.525 121.685C273.554 121.555 273.631 121.441 273.741 121.365C273.851 121.29 273.986 121.26 274.117 121.28L282.12 122.69C282.185 122.701 282.247 122.724 282.303 122.76C282.358 122.796 282.406 122.843 282.442 122.897C282.479 122.952 282.504 123.014 282.516 123.079C282.527 123.144 282.525 123.211 282.51 123.275Z" fill="#263238"/>
<path d="M315 133.25C315 133.655 314.955 133.805 314.94 134L314.055 138.635L304.132 184.925L302.91 190.602L302.257 193.67L301.935 195.17L297.142 217.535L295.927 223.22L294.322 230.675L294.007 232.175L289.237 254.412L288.922 255.912L288.517 257.787L285.802 270.462L285.495 271.902C284.67 275.742 281.137 278.337 277.59 277.715L262.972 275.135L231.18 269.532L226.5 268.632L222.75 267.98L214.29 266.48C210.742 265.85 208.537 262.242 209.362 258.402L211.365 249.042L211.687 247.542L213.285 240.08L214.5 234.425L219.292 212.067L219.607 210.567L220.267 207.5L221.482 201.815L231.405 155.532L234.12 142.865L236.85 130.25L237.165 128.75L238.455 122.75C239.31 118.782 240.487 116.862 241.905 116C243.322 115.137 244.905 115.362 246.63 115.67L259.32 117.92C260.07 118.055 260.475 119 260.25 120.035L260.152 120.485C259.635 122.915 260.962 123.155 262.597 123.485L262.882 123.537L266.632 124.19L291.945 128.652C293.595 128.945 294.945 129.177 295.44 126.74L295.537 126.29C295.593 125.979 295.716 125.683 295.897 125.424C296.078 125.165 296.314 124.949 296.587 124.79C296.801 124.677 297.046 124.635 297.285 124.67L309.96 126.92C310.38 126.995 310.777 127.085 311.167 127.19C311.968 127.385 312.719 127.745 313.372 128.247C313.657 128.495 313.725 128.562 313.8 128.637C314.7 129.605 315.15 131.045 315 133.25Z" fill="#455A64"/>
<g opacity="0.1">
<path d="M266.61 124.13L236.85 130.227L237.165 128.75L262.882 123.477L266.61 124.13Z" fill="white"/>
<path d="M311.145 127.092C311.946 127.287 312.697 127.648 313.35 128.15C313.635 128.397 313.702 128.465 313.777 128.54C314.7 129.605 315.15 131.045 315.015 133.257C315.015 133.662 314.97 133.812 314.955 134.007L314.07 138.642L231.42 155.577L234.135 142.91L311.145 127.092Z" fill="white"/>
<path d="M304.147 184.895L302.925 190.572L220.282 207.507L221.497 201.822L304.147 184.895Z" fill="white"/>
<path d="M302.272 193.64L301.95 195.125L219.307 212.067L219.622 210.575L302.272 193.64Z" fill="white"/>
<path d="M294.337 230.63L294.022 232.115L211.372 249.05L211.695 247.572L294.337 230.63Z" fill="white"/>
<path d="M297.157 217.49L295.935 223.175L213.292 240.11L214.515 234.417L297.157 217.49Z" fill="white"/>
<path d="M289.252 254.352L288.937 255.845L226.492 268.632L222.757 267.98L289.252 254.352Z" fill="white"/>
<path d="M288.532 257.72L285.817 270.395L262.987 275.067L231.195 269.465L288.532 257.72Z" fill="white"/>
</g>
<path d="M277.836 112.302L282.487 109.685L282.92 112.954C282.604 112.806 282.242 112.743 281.87 112.793C280.833 112.93 280.104 113.883 280.241 114.921C280.379 115.959 281.331 116.689 282.368 116.552C283.405 116.415 284.134 115.462 283.997 114.423C283.997 114.423 283.997 114.423 283.997 114.423L283.265 108.898C283.177 108.237 283.104 107.683 282.999 107.247C282.984 107.185 282.968 107.124 282.952 107.068C282.867 106.772 282.75 106.501 282.567 106.286C282.475 106.179 282.366 106.085 282.236 106.01C282.211 105.996 282.186 105.982 282.16 105.969L282.155 105.967C281.711 105.749 281.254 105.829 280.797 106.012C280.354 106.19 279.818 106.503 279.161 106.886L278.019 107.554C277.71 107.733 277.45 107.886 277.249 108.034C277.035 108.193 276.856 108.369 276.737 108.613C276.617 108.857 276.587 109.107 276.594 109.373C276.599 109.623 276.639 109.923 276.686 110.277L277.296 114.876C276.979 114.728 276.618 114.666 276.245 114.715C275.208 114.852 274.479 115.805 274.616 116.843C274.754 117.881 275.706 118.612 276.743 118.474C277.78 118.337 278.51 117.384 278.372 116.346C278.372 116.346 278.372 116.346 278.372 116.346L277.836 112.302Z" fill="#FDA92A"/>
<path d="M291.643 107.023C290.714 106.352 289.417 106.56 288.746 107.489C288.074 108.417 288.283 109.714 289.212 110.386C290.14 111.057 291.437 110.848 292.109 109.92C292.78 108.991 292.571 107.694 291.643 107.023Z" fill="#FDA92A"/>
<path fill-rule="evenodd" clip-rule="evenodd" d="M296.13 103.799C296.276 103.905 296.309 104.11 296.203 104.256C295.461 105.283 295.692 106.716 296.718 107.458C296.864 107.564 296.897 107.769 296.791 107.916C296.685 108.062 296.481 108.095 296.334 107.989C295.014 107.035 294.718 105.192 295.672 103.873C295.778 103.726 295.983 103.693 296.13 103.799Z" fill="#FDA92A"/>
<path opacity="0.5" d="M292.464 108.31L295.672 103.873C295.261 104.442 295.082 105.108 295.117 105.758L292.109 109.92C292.458 109.436 292.569 108.853 292.464 108.31Z" fill="#FDA92A"/>
<path opacity="0.5" d="M273.127 106.461C272.645 105.04 271.268 104.223 270.053 104.635C268.838 105.048 268.244 106.535 268.727 107.956C268.992 108.735 269.996 109.518 270.849 110.066C271.56 110.523 272.445 110.223 272.73 109.427C273.073 108.473 273.392 107.24 273.127 106.461Z" fill="#2A7EFD"/>
<path opacity="0.5" d="M285.411 97.9531C285.809 96.5063 287.135 95.6096 288.372 95.9502C289.609 96.2908 290.29 97.7397 289.891 99.1865C289.673 99.98 288.716 100.821 287.897 101.418C287.215 101.916 286.313 101.668 285.982 100.891C285.584 99.9585 285.192 98.7466 285.411 97.9531Z" fill="#2A7EFD"/>
<path d="M288.75 118.621C289.767 117.614 291.289 117.503 292.15 118.373C293.011 119.243 292.884 120.764 291.867 121.771C291.309 122.323 290.119 122.563 289.158 122.667C288.356 122.755 287.729 122.121 287.825 121.321C287.939 120.361 288.192 119.173 288.75 118.621Z" fill="#2A7EFD"/>
<path d="M230.792 296.758L226.961 293.043L229.973 291.699C229.92 292.044 229.963 292.409 230.116 292.751C230.543 293.707 231.664 294.135 232.62 293.708C233.576 293.281 234.005 292.161 233.579 291.205C233.152 290.25 232.032 289.822 231.075 290.249C231.075 290.249 231.075 290.249 231.075 290.249L225.986 292.521C225.377 292.793 224.866 293.021 224.479 293.245C224.424 293.277 224.37 293.31 224.32 293.342C224.06 293.507 223.834 293.695 223.68 293.933C223.603 294.051 223.544 294.182 223.509 294.328C223.503 294.356 223.497 294.384 223.492 294.412L223.491 294.418C223.408 294.906 223.615 295.321 223.921 295.708C224.217 296.081 224.669 296.506 225.223 297.027L226.188 297.933C226.448 298.177 226.668 298.384 226.868 298.535C227.08 298.695 227.301 298.816 227.568 298.861C227.836 298.906 228.084 298.864 228.337 298.782C228.576 298.705 228.852 298.582 229.178 298.436L233.414 296.545C233.362 296.891 233.405 297.255 233.558 297.598C233.984 298.553 235.105 298.981 236.062 298.554C237.018 298.127 237.447 297.007 237.021 296.052C236.594 295.096 235.473 294.668 234.517 295.095C234.517 295.095 234.517 295.095 234.517 295.095L230.792 296.758Z" fill="#FDA92A"/>
<path d="M259.197 297.006C261.046 296.834 262.406 295.197 262.234 293.348C262.063 291.499 260.425 290.139 258.576 290.31C256.728 290.481 255.368 292.119 255.539 293.968C255.71 295.817 257.348 297.177 259.197 297.006Z" fill="#FDA92A"/>
<path fill-rule="evenodd" clip-rule="evenodd" d="M257.161 305.724C256.869 305.751 256.61 305.536 256.583 305.245C256.394 303.201 254.584 301.698 252.541 301.887C252.249 301.914 251.99 301.699 251.963 301.407C251.936 301.116 252.151 300.857 252.443 300.83C255.07 300.587 257.397 302.519 257.641 305.147C257.668 305.439 257.453 305.697 257.161 305.724Z" fill="#FDA92A"/>
<path opacity="0.5" d="M256.822 296.311L257.641 305.147C257.536 304.014 257.043 303.01 256.306 302.254L255.539 293.968C255.628 294.931 256.115 295.761 256.822 296.311Z" fill="#FDA92A"/>
<path opacity="0.5" d="M218.75 285.55C216.804 286.269 214.728 285.502 214.113 283.837C213.498 282.173 214.578 280.241 216.524 279.522C217.592 279.128 219.308 279.524 220.639 279.963C221.749 280.329 222.197 281.541 221.591 282.54C220.864 283.739 219.818 285.156 218.75 285.55Z" fill="#2A7EFD"/>
<path opacity="0.4" d="M236.101 310.56C235.493 313.186 236.821 315.736 239.066 316.256C241.312 316.776 243.626 315.069 244.234 312.443C244.567 311.003 243.775 308.856 242.992 307.212C242.339 305.842 240.704 305.463 239.515 306.407C238.089 307.54 236.434 309.119 236.101 310.56Z" fill="#2A7EFD"/>
<path d="M272.152 294.73C273.64 296.203 275.869 296.365 277.129 295.092C278.389 293.819 278.203 291.593 276.715 290.119C275.898 289.311 274.156 288.96 272.749 288.807C271.576 288.679 270.659 289.606 270.798 290.778C270.966 292.183 271.335 293.922 272.152 294.73Z" fill="#2A7EFD"/>
<path d="M68.475 286.22C55.725 279.312 41.3325 266.72 35.745 252.47C49.56 259.595 61.2 271.602 68.475 286.22Z" fill="#538707"/>
<path d="M67.6425 264.8C54.8925 257.885 40.5 245.3 34.905 231.05C48.7275 238.175 60.3675 250.183 67.6425 264.8Z" fill="#538707"/>
<path d="M65.7375 243.853C52.9875 236.945 38.5875 224.353 33 210.103C46.815 217.235 58.4625 229.243 65.7375 243.853Z" fill="#538707"/>
<path d="M62.94 221.855C51.0825 213.215 38.325 198.74 34.44 183.792C47.3025 192.792 57.4275 206.33 62.94 221.855Z" fill="#538707"/>
<path d="M59.3325 204.882C51.3075 192.05 44.46 173.427 46.0275 158C54.9724 171.981 59.6 188.287 59.3325 204.882Z" fill="#538707"/>
<path d="M61.17 212.952C64.545 196.94 72.765 177.177 84.6 166.047C81.1301 183.498 73.0384 199.697 61.17 212.952Z" fill="#538707"/>
<path d="M63.7875 231.08C68.6175 214.693 78.7875 194.833 92.0475 184.265C87.0091 202.128 77.2463 218.301 63.7875 231.08Z" fill="#538707"/>
<path d="M66.69 253.137C71.5275 236.757 81.69 216.89 94.9575 206.33C89.9182 224.192 80.1524 240.363 66.69 253.137Z" fill="#538707"/>
<path d="M68.1525 280.025C72.99 263.638 83.1525 243.778 96.42 233.218C91.3769 251.078 81.6117 267.248 68.1525 280.025Z" fill="#538707"/>
<path d="M59.01 201.657C59.01 201.657 59.0475 201.74 59.0925 201.912C59.1375 202.085 59.1975 202.37 59.2725 202.662L59.925 205.662C60.4875 208.242 61.23 212 62.0625 216.65C62.895 221.3 63.8025 226.865 64.68 233.06C65.5575 239.255 66.345 246.08 67.0125 253.265C67.68 260.45 68.1075 267.32 68.4 273.56C68.6925 279.8 68.805 285.44 68.82 290.172C68.835 294.905 68.82 298.722 68.7225 301.37C68.685 302.66 68.655 303.68 68.625 304.415C68.625 304.737 68.625 304.992 68.5875 305.202C68.6004 305.292 68.6004 305.383 68.5875 305.472C68.5777 305.383 68.5777 305.292 68.5875 305.202C68.5875 304.992 68.5875 304.73 68.5875 304.407V301.37C68.5875 298.722 68.5875 294.897 68.52 290.172C68.4525 285.447 68.28 279.83 67.9875 273.59C67.695 267.35 67.2375 260.495 66.5625 253.34C65.8875 246.185 65.0625 239.345 64.2675 233.15C63.4725 226.955 62.5725 221.405 61.77 216.747C60.9675 212.09 60.27 208.325 59.79 205.73C59.5575 204.462 59.37 203.48 59.2425 202.73L59.1075 201.98C59.0653 201.876 59.0326 201.768 59.01 201.657Z" fill="#263238"/>
<g opacity="0.3">
<path d="M68.475 286.22C55.725 279.312 41.3325 266.72 35.745 252.47C49.56 259.595 61.2 271.602 68.475 286.22Z" fill="#13121A"/>
</g>
<g opacity="0.3">
<path d="M67.6425 264.8C54.8925 257.885 40.5 245.3 34.905 231.05C48.7275 238.175 60.3675 250.183 67.6425 264.8Z" fill="#13121A"/>
</g>
<g opacity="0.3">
<path d="M65.7375 243.853C52.9875 236.945 38.5875 224.353 33 210.103C46.815 217.235 58.4625 229.243 65.7375 243.853Z" fill="#13121A"/>
</g>
<g opacity="0.3">
<path d="M62.94 221.855C51.0825 213.215 38.325 198.74 34.44 183.792C47.3025 192.792 57.4275 206.33 62.94 221.855Z" fill="#13121A"/>
</g>
<g opacity="0.3">
<path d="M59.3325 204.882C51.3075 192.05 44.46 173.427 46.0275 158C54.9724 171.981 59.6 188.287 59.3325 204.882Z" fill="#13121A"/>
</g>
<g opacity="0.3">
<path d="M61.17 212.952C64.545 196.94 72.765 177.177 84.6 166.047C81.1301 183.498 73.0384 199.697 61.17 212.952Z" fill="#13121A"/>
</g>
<g opacity="0.3">
<path d="M63.7875 231.08C68.6175 214.693 78.7875 194.833 92.0475 184.265C87.0091 202.128 77.2463 218.301 63.7875 231.08Z" fill="#13121A"/>
</g>
<g opacity="0.3">
<path d="M66.69 253.137C71.5275 236.757 81.69 216.89 94.9575 206.33C89.9182 224.192 80.1524 240.363 66.69 253.137Z" fill="#13121A"/>
</g>
<g opacity="0.3">
<path d="M68.1525 280.025C72.99 263.638 83.1525 243.778 96.42 233.218C91.3769 251.078 81.6117 267.248 68.1525 280.025Z" fill="#13121A"/>
</g>
<path d="M71.7075 290.547C63.93 280.28 56.7075 265.085 56.79 252.042C65.4062 263.151 70.5908 276.534 71.7075 290.547Z" fill="#538707"/>
<path d="M77.7225 273.942C69.945 263.675 62.7225 248.48 62.805 235.438C71.4185 246.547 76.6028 259.929 77.7225 273.942Z" fill="#538707"/>
<path d="M82.755 257.285C74.9775 247.018 67.755 231.823 67.83 218.78C76.4458 229.889 81.6328 243.271 82.755 257.285Z" fill="#538707"/>
<path d="M87.42 239.48C80.9025 228.23 75.495 212.248 77.1525 199.385C84.3892 211.472 87.9564 225.402 87.42 239.48Z" fill="#538707"/>
<path d="M89.9025 225.17C87.6525 212.27 88.1325 195.433 94.1475 184.333C96.7868 198.066 95.31 212.273 89.9025 225.17Z" fill="#538707"/>
<path d="M88.8 232.025C96.42 221.203 108.93 209.405 121.582 205.603C113.509 217.458 102.1 226.654 88.8 232.025Z" fill="#538707"/>
<path d="M85.215 246.815C94.0575 236.27 108.142 225.185 121.71 222.365C112.239 233.954 99.5354 242.464 85.215 246.815Z" fill="#538707"/>
<path d="M80.61 264.702C89.4525 254.157 103.545 243.065 117.113 240.245C107.637 251.835 94.9323 260.347 80.61 264.702Z" fill="#538707"/>
<path d="M73.38 285.702C82.23 275.15 96.315 264.065 109.883 261.245C100.408 272.835 87.7027 281.348 73.38 285.702Z" fill="#538707"/>
<path d="M90.6525 222.59C90.6525 222.59 90.6525 222.672 90.6525 222.815C90.6525 222.957 90.6 223.205 90.5625 223.467C90.4575 224.075 90.3225 224.9 90.15 225.95C89.79 228.11 89.205 231.2 88.4175 235.055C86.85 242.727 84.36 253.265 80.9175 264.702C79.185 270.425 77.3925 275.832 75.6675 280.715C73.9425 285.597 72.2775 289.947 70.8 293.57C69.3225 297.192 68.1075 300.125 67.2075 302.12L66.1725 304.452L65.895 305.045C65.8275 305.18 65.79 305.247 65.7825 305.24C65.7945 305.167 65.8173 305.096 65.85 305.03C65.91 304.865 65.9925 304.662 66.0825 304.415C66.315 303.845 66.6375 303.065 67.035 302.082C67.875 300.065 69.06 297.125 70.485 293.487C71.91 289.85 73.5225 285.477 75.2475 280.602C76.9725 275.727 78.7125 270.312 80.4375 264.605C83.8725 253.175 86.4375 242.667 88.065 235.025C88.8975 231.2 89.565 228.102 89.9475 225.957C90.1575 224.915 90.3225 224.09 90.45 223.482C90.5025 223.227 90.555 223.017 90.5925 222.845C90.5987 222.757 90.6189 222.671 90.6525 222.59Z" fill="#263238"/>
<path d="M83.9025 332.36H56.5725L51.4725 294.695H89.145L83.9025 332.36Z" fill="#455A64"/>
<path d="M92.535 294.312H48.09V300.17H92.535V294.312Z" fill="#455A64"/>
<path d="M92.5275 300.268C92.5275 300.373 82.695 300.463 70.56 300.463C58.425 300.463 48.5925 300.373 48.5925 300.268C48.5925 300.163 58.4325 300.073 70.56 300.073C82.6875 300.073 92.5275 300.155 92.5275 300.268Z" fill="#263238"/>
<path d="M156.045 307.363L155.783 323.03C155.783 323.03 171.578 328.558 171.81 331.453L141.48 332.008L140.918 307.64L156.045 307.363Z" fill="#2A7EFD"/>
<path d="M146.385 321.853C146.095 321.946 145.85 322.143 145.697 322.406C145.543 322.669 145.492 322.98 145.552 323.278C145.637 323.571 145.83 323.821 146.091 323.977C146.353 324.133 146.665 324.183 146.962 324.118C147.264 324.015 147.518 323.806 147.678 323.531C147.838 323.255 147.893 322.931 147.832 322.618C147.713 322.322 147.485 322.083 147.194 321.952C146.903 321.821 146.573 321.807 146.272 321.913" fill="#E0E0E0"/>
<path d="M141.48 331.97L141.525 329.51L170.58 329.9C170.58 329.9 171.945 330.463 171.81 331.4L141.48 331.97Z" fill="#263238"/>
<path d="M156.27 322.828C156.27 322.978 155.52 323.06 154.77 323.578C154.02 324.095 153.675 324.695 153.54 324.643C153.405 324.59 153.608 323.728 154.493 323.143C155.378 322.558 156.3 322.693 156.27 322.828Z" fill="#263238"/>
<path d="M159.48 324.088C159.48 324.23 158.872 324.493 158.385 325.13C157.897 325.768 157.762 326.428 157.635 326.428C157.507 326.428 157.38 325.588 158.002 324.808C158.625 324.028 159.472 323.945 159.48 324.088Z" fill="#263238"/>
<path d="M161.355 327.86C161.22 327.898 160.995 327.163 161.355 326.36C161.715 325.558 162.405 325.205 162.472 325.325C162.54 325.445 162.12 325.888 161.827 326.563C161.535 327.238 161.497 327.845 161.355 327.86Z" fill="#263238"/>
<path d="M155.94 319.28C155.88 319.415 155.19 319.22 154.358 319.28C153.525 319.34 152.858 319.625 152.798 319.498C152.738 319.37 153.338 318.838 154.298 318.748C155.258 318.658 156.045 319.145 155.94 319.28Z" fill="#263238"/>
<path d="M138.428 299.03L127.583 310.28C127.583 310.28 135.375 325.085 133.583 327.365L111.008 307.115L127.193 288.883L138.428 299.03Z" fill="#2A7EFD"/>
<path d="M121.478 303.043C121.201 302.914 120.886 302.891 120.594 302.98C120.302 303.068 120.053 303.262 119.895 303.523C119.758 303.795 119.73 304.11 119.816 304.402C119.902 304.695 120.097 304.944 120.36 305.098C120.654 305.231 120.986 305.252 121.294 305.156C121.603 305.061 121.865 304.856 122.033 304.58C122.148 304.281 122.142 303.95 122.018 303.654C121.894 303.359 121.659 303.124 121.365 302.998" fill="#E0E0E0"/>
<path d="M111 307.115L112.703 305.338L133.702 325.423C133.702 325.423 134.295 326.78 133.545 327.365L111 307.115Z" fill="#263238"/>
<path d="M128.047 310.498C127.95 310.603 127.35 310.16 126.495 310.025C125.64 309.89 124.927 310.1 124.867 309.965C124.807 309.83 125.535 309.343 126.577 309.515C127.62 309.688 128.167 310.415 128.047 310.498Z" fill="#263238"/>
<path d="M129.54 313.603C129.473 313.73 128.79 313.49 128.04 313.603C127.29 313.715 126.698 314.128 126.593 314.023C126.488 313.918 126.975 313.235 127.965 313.093C128.955 312.95 129.63 313.49 129.54 313.603Z" fill="#263238"/>
<path d="M128.34 317.638C128.22 317.57 128.565 316.888 129.39 316.535C130.215 316.183 130.942 316.408 130.89 316.535C130.837 316.663 130.245 316.7 129.577 317C128.91 317.3 128.46 317.728 128.34 317.638Z" fill="#263238"/>
<path d="M130.237 307.655C130.102 307.715 129.735 307.108 129.075 306.59C128.415 306.073 127.747 305.84 127.777 305.69C127.807 305.54 128.625 305.57 129.39 306.193C130.155 306.815 130.372 307.618 130.237 307.655Z" fill="#263238"/>
<path d="M198.225 137.96L184.89 146.78L185.085 150.275L188.565 157.61C188.565 157.61 190.178 159.11 194.895 154.355C199.613 149.6 205.59 140.03 205.59 140.03L198.225 137.96Z" fill="#FFBE9D"/>
<path d="M220.673 119.615C220.594 119.443 220.473 119.293 220.321 119.18C220.169 119.068 219.99 118.995 219.802 118.97L213.27 118.093C212.986 118.06 212.698 118.087 212.424 118.171C212.15 118.254 211.897 118.394 211.68 118.58L192.975 134.638L193.822 135.463L200.842 137.158L220.8 119.908L220.673 119.615Z" fill="#263238"/>
<path d="M215.49 120.95C215.561 121.025 215.658 121.07 215.76 121.077C215.863 121.084 215.964 121.052 216.045 120.988C216.138 120.944 216.211 120.865 216.247 120.769C216.284 120.672 216.281 120.565 216.24 120.47C216.163 120.401 216.063 120.362 215.959 120.362C215.855 120.362 215.755 120.401 215.677 120.47C215.475 120.568 215.385 120.8 215.49 120.95Z" fill="white"/>
<path d="M220.8 119.908C220.371 119.913 219.942 119.883 219.518 119.818L216.045 119.405L213.645 119.105C213.446 119.068 213.242 119.075 213.046 119.126C212.851 119.176 212.668 119.269 212.513 119.398L211.448 120.328L206.663 124.445C203.265 127.355 200.175 129.98 197.925 131.863C196.83 132.763 195.923 133.505 195.24 134.075C194.92 134.348 194.582 134.599 194.228 134.825C194.504 134.503 194.811 134.206 195.143 133.94L197.738 131.63C199.943 129.695 202.988 127.048 206.408 124.13L211.208 120.035L212.295 119.12C212.487 118.964 212.71 118.852 212.95 118.791C213.19 118.73 213.44 118.722 213.683 118.768L216.083 119.113L219.548 119.645C219.97 119.705 220.389 119.792 220.8 119.908Z" fill="#455A64"/>
<path d="M214.012 123.268C214.012 123.268 213.412 122.975 212.595 124.595C211.777 126.215 209.28 130.828 209.28 130.828L206.49 128.158L202.23 127.543C202.23 127.543 201.097 128.12 201.63 128.75C202.162 129.38 204.63 130.58 204.63 130.58L205.77 133.873L201.045 129.68C201.045 129.68 199.08 129.68 199.305 130.91C199.53 132.14 202.252 136.723 202.252 136.723L199.552 135.74L196.837 132.838C196.837 132.838 195.817 132.598 195.952 133.588C196.087 134.578 198.63 138.598 198.63 138.598L202.192 141.763C202.192 141.763 204.502 142.22 204.9 141.613C205.204 141.142 205.455 140.639 205.65 140.113C205.65 140.113 206.94 140.113 207.33 139.61C207.6 139.151 207.768 138.64 207.825 138.11C207.825 138.11 209.61 138.965 210.142 137.983C210.673 136.726 210.992 135.391 211.087 134.03C211.125 133.168 214.215 125.96 214.2 125.713C214.185 125.465 215.295 123.103 214.012 123.268Z" fill="#FFBE9D"/>
<path d="M205.012 141.635C204.628 141.732 204.226 141.732 203.842 141.635C201.938 141.386 200.2 140.421 198.982 138.935C198.525 138.365 198.345 137.953 198.39 137.923C199.283 138.861 200.291 139.682 201.39 140.368C203.227 141.448 205.027 141.53 205.012 141.635Z" fill="#EB996E"/>
<path d="M204.45 139.88C204.36 139.955 203.738 139.37 203.138 138.508C202.538 137.645 202.193 136.858 202.298 136.798C202.403 136.738 202.905 137.413 203.498 138.253C204.09 139.093 204.548 139.798 204.45 139.88Z" fill="#EB996E"/>
<path d="M207.623 136.925C207.533 137 206.873 136.423 206.37 135.538C205.868 134.653 205.62 133.843 205.703 133.798C205.785 133.753 206.22 134.458 206.745 135.298C207.27 136.138 207.72 136.843 207.623 136.925Z" fill="#EB996E"/>
<path d="M210.712 134.698C210.404 134.087 210.153 133.45 209.962 132.793C209.659 132.185 209.409 131.553 209.212 130.903C209.302 130.828 209.962 131.533 210.405 132.628C210.733 133.265 210.841 133.993 210.712 134.698Z" fill="#EB996E"/>
<path d="M178.477 120.313C173.415 120.133 162.727 105.44 162.817 100.37L163.215 69.8679C163.057 61.6704 167.715 54.7479 175.897 54.8229L176.647 54.8754C180.322 55.1202 183.77 56.7404 186.304 59.4132C188.838 62.086 190.272 65.6152 190.32 69.2979C190.417 76.4079 190.432 84.2604 190.132 88.0479C189.502 95.8929 181.575 96.5829 181.575 96.5829C181.575 96.5829 181.5 98.4054 181.447 100.715C181.32 105.898 183.345 120.463 178.162 120.283L178.477 120.313Z" fill="#FFBE9D"/>
<path d="M181.583 96.5828C177.957 96.3333 174.479 95.0473 171.562 92.8778C171.562 92.8778 173.625 98.9453 181.507 98.7653L181.583 96.5828Z" fill="#EB996E"/>
<path d="M187.672 75.7403C187.657 76.0328 187.527 76.3075 187.311 76.5052C187.095 76.703 186.81 76.8081 186.517 76.7978C186.374 76.7979 186.232 76.7695 186.1 76.7144C185.967 76.6592 185.847 76.5785 185.746 76.4767C185.645 76.3749 185.565 76.2541 185.511 76.1213C185.456 75.9885 185.429 75.8463 185.43 75.7028C185.447 75.4111 185.578 75.1375 185.793 74.9401C186.009 74.7428 186.293 74.637 186.585 74.6454C186.729 74.6433 186.872 74.6703 187.005 74.7247C187.139 74.7791 187.26 74.8598 187.361 74.962C187.463 75.0642 187.543 75.1858 187.596 75.3195C187.65 75.4532 187.676 75.5964 187.672 75.7403Z" fill="#263238"/>
<path d="M188.43 72.6579C188.28 72.7929 187.47 72.1029 186.27 72.0279C185.07 71.9529 184.133 72.4929 184.02 72.3354C183.908 72.1779 184.125 72.0129 184.523 71.7579C185.069 71.4323 185.703 71.283 186.337 71.3304C186.966 71.3684 187.566 71.6077 188.047 72.0129C188.392 72.3204 188.505 72.5979 188.43 72.6579Z" fill="#263238"/>
<path d="M176.633 75.5303C176.617 75.8228 176.487 76.0974 176.271 76.2952C176.055 76.493 175.77 76.5981 175.478 76.5878C175.334 76.5888 175.193 76.5614 175.06 76.5071C174.928 76.4528 174.807 76.3727 174.706 76.2715C174.605 76.1703 174.525 76.0501 174.471 75.9177C174.416 75.7853 174.389 75.6434 174.39 75.5003C174.394 75.3526 174.427 75.207 174.487 75.072C174.547 74.937 174.633 74.8152 174.741 74.7135C174.848 74.6118 174.974 74.5322 175.112 74.4794C175.25 74.4265 175.397 74.4013 175.545 74.4053C175.692 74.4031 175.837 74.431 175.973 74.4872C176.108 74.5434 176.23 74.6269 176.332 74.7323C176.434 74.8377 176.514 74.9629 176.565 75.1002C176.617 75.2375 176.64 75.3838 176.633 75.5303Z" fill="#263238"/>
<path d="M176.587 72.1403C176.437 72.2753 175.627 71.5928 174.42 71.5103C173.212 71.4278 172.29 71.9753 172.17 71.8253C172.05 71.6753 172.267 71.4953 172.672 71.2403C173.22 70.9175 173.853 70.7684 174.487 70.8129C175.115 70.8555 175.713 71.0942 176.197 71.4953C176.55 71.7803 176.655 72.0803 176.587 72.1403Z" fill="#263238"/>
<path d="M180.292 81.7029C180.94 81.5407 181.605 81.4651 182.272 81.4779C182.58 81.4779 182.88 81.4254 182.947 81.2154C182.991 80.8998 182.939 80.5784 182.797 80.2929L182.047 77.8854C181.005 74.4579 180.277 71.6529 180.412 71.6154C180.547 71.5779 181.507 74.3154 182.55 77.7354C182.797 78.5829 183.037 79.3854 183.262 80.1579C183.428 80.5444 183.455 80.9765 183.337 81.3804C183.287 81.4859 183.213 81.5781 183.12 81.6498C183.028 81.7214 182.92 81.7704 182.805 81.7929C182.63 81.8265 182.451 81.839 182.272 81.8304C181.61 81.8708 180.945 81.828 180.292 81.7029Z" fill="#263238"/>
<path d="M176.782 67.6253C176.595 67.9178 175.447 67.5203 174.022 67.3928C172.597 67.2653 171.397 67.3928 171.277 67.0778C171.225 66.9203 171.48 66.6653 172.027 66.4478C172.71 66.1864 173.446 66.0912 174.172 66.1703C174.902 66.2355 175.606 66.4719 176.227 66.8603C176.662 67.1753 176.865 67.4828 176.782 67.6253Z" fill="#263238"/>
<path d="M188.333 69.8153C188.07 70.0778 187.103 69.7403 185.918 69.6653C184.733 69.5903 183.728 69.7328 183.51 69.4328C183.42 69.2903 183.585 69.0278 184.043 68.7878C184.663 68.4988 185.349 68.3798 186.03 68.4428C186.709 68.4869 187.365 68.7122 187.928 69.0953C188.333 69.3953 188.453 69.6878 188.333 69.8153Z" fill="#263238"/>
<path d="M163.462 75.7253C163.335 75.6578 158.212 73.7678 157.987 79.1453C157.762 84.5228 163.237 83.6453 163.237 83.4503C163.237 83.2553 163.462 75.7253 163.462 75.7253Z" fill="#FFBE9D"/>
<path d="M161.677 81.3579C161.677 81.3579 161.58 81.4179 161.422 81.4854C161.199 81.5759 160.949 81.5759 160.725 81.4854C160.384 81.2526 160.111 80.9334 159.935 80.5604C159.758 80.1873 159.684 79.774 159.72 79.3629C159.726 78.9026 159.833 78.4492 160.035 78.0354C160.093 77.8665 160.192 77.7145 160.323 77.5928C160.454 77.4712 160.612 77.3836 160.785 77.3379C160.893 77.3148 161.006 77.3299 161.104 77.3804C161.203 77.431 161.281 77.514 161.325 77.6154C161.392 77.7654 161.325 77.8779 161.385 77.8854C161.445 77.8929 161.505 77.7954 161.467 77.5779C161.447 77.4412 161.374 77.3177 161.265 77.2329C161.195 77.1734 161.114 77.1287 161.026 77.1016C160.939 77.0745 160.846 77.0656 160.755 77.0754C160.533 77.1117 160.323 77.2046 160.147 77.3451C159.971 77.4857 159.835 77.6691 159.75 77.8779C159.5 78.3384 159.369 78.8539 159.367 79.3779C159.367 80.4654 159.885 81.4929 160.657 81.7479C160.801 81.7944 160.952 81.8084 161.101 81.789C161.251 81.7695 161.394 81.7171 161.52 81.6354C161.662 81.4854 161.7 81.3654 161.677 81.3579Z" fill="#EB996E"/>
<path d="M176.955 82.2803C176.88 82.2803 176.827 82.5803 176.955 83.0303C177.088 83.6501 177.413 84.212 177.885 84.6353C178.338 85.0441 178.861 85.3669 179.43 85.5878C179.857 85.7528 180.135 85.8053 180.18 85.7378C180.225 85.6703 179.992 85.4828 179.625 85.2278C179.152 84.9285 178.703 84.5925 178.282 84.2228C177.277 83.3678 177.127 82.2278 176.955 82.2803Z" fill="#263238"/>
<path d="M137.91 175.775L134.43 197.42L136.972 215.308L137.077 219.193L139.65 238.28C139.65 238.28 138.697 256.28 138.217 260.165C137.737 264.05 139.432 319.033 139.432 319.033L156.922 318.283C156.922 318.283 163.545 236.713 163.545 235.813C163.545 234.913 172.642 174.808 172.642 174.808L137.91 175.775Z" fill="#263238"/>
<path d="M182.123 179.113C182.123 179.113 181.77 252.365 180.135 256.603C178.5 260.84 132.555 306.373 132.555 306.373L118.005 295.033L155.16 245.03L157.448 175.228L182.123 179.113Z" fill="#263238"/>
<path d="M169.928 198.268C170.025 198.268 167.85 216.778 165.068 239.578C162.285 262.378 159.953 280.828 159.818 280.828C159.683 280.828 161.895 262.325 164.678 239.518C167.46 216.71 169.823 198.253 169.928 198.268Z" fill="#455A64"/>
<path d="M139.65 238.28C139.658 238.34 139.658 238.401 139.65 238.46C139.65 238.595 139.65 238.775 139.65 238.985C139.65 239.48 139.567 240.155 139.507 241.018C139.357 242.78 139.192 245.338 139.005 248.518C138.652 254.833 138.352 263.563 138.427 273.208C138.502 282.853 138.787 291.598 138.952 297.958C139.027 301.093 139.087 303.643 139.132 305.458C139.132 306.32 139.132 307.003 139.132 307.498C139.132 307.708 139.132 307.888 139.132 308.023C139.136 308.083 139.136 308.143 139.132 308.203C139.125 308.143 139.125 308.083 139.132 308.023C139.132 307.888 139.132 307.715 139.132 307.498C139.132 307.003 139.08 306.328 139.042 305.465C138.975 303.665 138.877 301.115 138.75 297.965C138.525 291.643 138.18 282.905 138.12 273.253C138.06 263.6 138.382 254.855 138.802 248.503C139.027 245.345 139.23 242.795 139.417 241.04C139.507 240.178 139.575 239.503 139.627 239.008C139.627 238.798 139.68 238.625 139.695 238.483C139.673 238.417 139.658 238.349 139.65 238.28Z" fill="#455A64"/>
<path d="M157.335 196.715C157.38 196.805 154.192 198.485 150.225 200.465C146.257 202.445 142.995 203.975 142.95 203.885C142.905 203.795 146.092 202.123 150.06 200.135C154.027 198.148 157.29 196.625 157.335 196.715Z" fill="#455A64"/>
<path d="M192.562 140.03L201.345 147.928C201.345 147.928 187.597 162.928 183.345 166.265C179.092 169.603 184.702 143.608 184.702 143.608L192.562 140.03Z" fill="#2A7EFD"/>
<path d="M162.743 93.0879L159.09 98.1504L144.84 103.4L138.398 151.738L134.325 194.893C134.325 194.893 140.018 186.778 144.375 186.643C148.733 186.508 170.768 192.688 172.26 193.813L175.17 184.063L177.525 195.38C177.525 195.38 181.665 196.31 183.825 190.13L182.91 168.68C182.91 168.68 185.82 130.018 185.655 124.183C185.49 118.348 181.553 102.163 181.553 102.163L180.053 106.933L167.295 96.0204L162.743 93.0879Z" fill="#2A7EFD"/>
<path d="M148.98 101.938C148.98 101.938 139.642 101.938 136.62 119.188C133.597 136.438 129.262 155.03 131.497 162.005C133.732 168.98 142.545 188.938 142.545 188.938L154.545 184.603L149.61 153.2L155.317 122.45C155.317 122.45 156.045 103.198 148.98 101.938Z" fill="#2A7EFD"/>
<path d="M159.72 191.54C159.72 191.54 153.983 184.79 153.548 184.955L144.045 188.39C143.838 190.84 143.861 193.303 144.113 195.748C144.48 199.265 145.088 203.038 145.088 203.038L157.62 196.355C157.897 197.746 158.307 199.107 158.843 200.42C159.54 201.92 161.955 200.338 161.955 200.338L159.72 191.54Z" fill="#FFBE9D"/>
<path d="M155.295 122.473C155.295 122.473 155.295 122.66 155.22 123.02C155.145 123.38 155.063 123.935 154.935 124.633C154.68 126.05 154.313 128.128 153.833 130.783C152.858 136.123 151.448 143.803 149.723 153.23V153.178C151.14 162.118 152.835 172.835 154.695 184.573V184.715L154.56 184.768L142.56 189.103L142.403 189.163L142.335 189.005L138.51 180.14C136.215 174.703 134.01 169.393 132.053 164.158C131.805 163.505 131.588 162.845 131.37 162.193C131.258 161.863 131.198 161.51 131.108 161.18C131.016 160.844 130.953 160.5 130.92 160.153C130.819 159.475 130.759 158.791 130.74 158.105C130.74 157.43 130.688 156.748 130.74 156.08C130.819 153.455 131.041 150.836 131.408 148.235C132.068 143.158 132.968 138.38 133.785 133.903C134.603 129.425 135.398 125.27 136.103 121.468C136.433 119.563 136.808 117.755 137.19 116.053C137.43 115.213 137.663 114.395 137.895 113.608C138.128 112.82 138.458 112.108 138.728 111.358C139.682 108.886 141.152 106.647 143.04 104.788C144.244 103.624 145.695 102.747 147.285 102.223C147.699 102.096 148.123 102.003 148.553 101.945H148.883H148.995L148.56 101.998C148.135 102.069 147.717 102.172 147.308 102.305C145.743 102.855 144.319 103.744 143.138 104.908C141.283 106.764 139.844 108.994 138.915 111.448C138.653 112.198 138.36 112.903 138.098 113.698C137.835 114.493 137.648 115.295 137.408 116.128C137.04 117.83 136.658 119.623 136.358 121.535C135.66 125.345 134.858 129.508 134.108 133.985C133.358 138.463 132.375 143.218 131.723 148.28C131.362 150.869 131.144 153.475 131.07 156.088C131.07 156.755 131.07 157.423 131.07 158.09C131.093 158.766 131.153 159.439 131.25 160.108C131.283 160.443 131.345 160.774 131.438 161.098C131.52 161.428 131.58 161.758 131.685 162.08C131.91 162.733 132.128 163.385 132.368 164.038C134.295 169.25 136.53 174.538 138.833 179.998C140.138 182.998 141.428 185.998 142.65 188.863L142.425 188.765L154.425 184.438L154.313 184.625C152.483 172.88 150.81 162.17 149.415 153.223V153.178C151.185 143.765 152.633 136.085 153.645 130.753C154.148 128.105 154.545 126.035 154.823 124.618C154.958 123.92 155.063 123.388 155.138 123.013C155.213 122.638 155.295 122.473 155.295 122.473Z" fill="#263238"/>
<path d="M180.105 106.933C180.041 107.159 179.948 107.376 179.828 107.578L178.958 109.325L175.815 115.4L175.695 115.64L175.538 115.423C174.42 113.885 173.13 112.228 171.72 110.533C169.358 107.692 166.834 104.99 164.16 102.44C163.14 101.458 162.293 100.685 161.708 100.145C161.389 99.8826 161.091 99.5968 160.815 99.2903C161.163 99.5123 161.492 99.7631 161.798 100.04C162.413 100.543 163.298 101.293 164.333 102.253C167.067 104.758 169.628 107.447 171.998 110.3C173.415 112.003 174.697 113.675 175.8 115.228H175.523C176.835 112.813 177.952 110.728 178.778 109.228L179.737 107.525C179.843 107.318 179.966 107.119 180.105 106.933Z" fill="#263238"/>
<path d="M183.255 109.513C183.383 109.468 184.005 111.665 183.555 114.59L183.473 115.108L183.225 114.635C183.09 114.38 182.955 114.118 182.828 113.84C182.145 112.34 181.785 110.84 181.41 109.873C181.035 108.905 180.75 108.268 180.803 108.245C181.164 108.695 181.448 109.202 181.643 109.745C182.085 110.743 182.49 112.183 183.143 113.66C183.27 113.93 183.398 114.185 183.525 114.41L183.195 114.455C183.384 113.283 183.442 112.093 183.368 110.908C183.345 110.03 183.218 109.528 183.255 109.513Z" fill="#263238"/>
<path d="M180.72 109.43C180.732 109.492 180.732 109.556 180.72 109.618C180.72 109.768 180.72 109.955 180.72 110.188C180.72 110.69 180.72 111.425 180.72 112.37C180.72 114.268 180.615 117.005 180.428 120.388C180.068 127.138 179.243 136.483 178.395 146.78C177.548 157.078 176.723 166.385 176.145 173.158C175.845 176.51 175.598 179.233 175.395 181.145C175.305 182.068 175.23 182.795 175.178 183.313C175.178 183.543 175.155 183.73 175.11 183.875C175.118 183.94 175.118 184.006 175.11 184.07C175.1 184.006 175.1 183.94 175.11 183.875C175.11 183.725 175.11 183.538 175.11 183.313C175.11 182.788 175.2 182.06 175.26 181.13C175.41 179.218 175.613 176.488 175.875 173.135C176.423 166.385 177.18 157.04 178.02 146.75C178.86 136.46 179.738 127.13 180.158 120.373C180.375 116.998 180.495 114.26 180.563 112.37C180.6 111.44 180.623 110.713 180.645 110.188C180.645 109.955 180.645 109.768 180.645 109.618C180.659 109.551 180.684 109.488 180.72 109.43Z" fill="#263238"/>
<path d="M185.76 126.23C185.857 126.23 185.325 135.8 184.56 147.575C183.795 159.35 183.06 168.905 183 168.898C182.94 168.89 183.435 159.335 184.2 147.553C184.965 135.77 185.662 126.223 185.76 126.23Z" fill="#263238"/>
<path d="M157.65 114.673C157.583 114.673 157.582 113.81 157.237 112.483C156.804 110.749 155.943 109.151 154.734 107.834C153.525 106.518 152.006 105.525 150.315 104.945C149.025 104.488 148.163 104.42 148.17 104.353C148.371 104.317 148.577 104.317 148.777 104.353C149.326 104.417 149.869 104.53 150.398 104.69C152.163 105.226 153.753 106.225 155 107.583C156.248 108.942 157.109 110.611 157.493 112.415C157.607 112.956 157.673 113.506 157.688 114.058C157.711 114.264 157.698 114.472 157.65 114.673Z" fill="#263238"/>
<g opacity="0.3">
<path d="M183.495 165.988C186.105 158.821 186.564 151.047 184.815 143.623C184.342 151.123 183.945 158.623 183.473 166.123" fill="#13121A"/>
</g>
<g opacity="0.3">
<path d="M154.815 125.15C151.733 141.163 149.228 156.35 149.565 154.25L154.545 184.603L157.47 188.938C154.913 168.568 152.813 145.438 154.815 125.15Z" fill="#13121A"/>
</g>
<path d="M195.93 60.1403C195.895 59.6214 195.73 59.1196 195.451 58.6807C195.172 58.2418 194.787 57.8798 194.332 57.6278C194.359 57.3284 194.359 57.0273 194.332 56.7278C194.201 55.8231 193.764 54.9905 193.094 54.3683C192.425 53.7462 191.562 53.372 190.65 53.3078C190.551 52.6073 190.262 51.9472 189.815 51.3987C189.368 50.8503 188.779 50.4344 188.113 50.1958C187.447 49.9573 186.728 49.9052 186.035 50.0453C185.341 50.1853 184.699 50.5121 184.177 50.9903C183.541 50.3647 182.738 49.9357 181.864 49.7548C180.99 49.5739 180.082 49.6488 179.25 49.9703C179.037 50.0396 178.849 50.17 178.71 50.3453C178.669 50.4064 178.641 50.475 178.627 50.5471C178.612 50.6192 178.613 50.6934 178.627 50.7653C178.401 50.3527 178.078 50.0009 177.686 49.7397C177.295 49.4786 176.846 49.3158 176.377 49.2653C176.058 49.2312 175.736 49.2541 175.425 49.3328C174.578 49.3583 173.773 49.7072 173.175 50.3078C172.11 49.8842 170.927 49.8654 169.849 50.2551C168.771 50.6448 167.873 51.416 167.325 52.4228C166.441 52.429 165.578 52.6955 164.844 53.189C164.111 53.6825 163.539 54.3812 163.2 55.1978C162.63 55.2135 162.074 55.3747 161.584 55.6661C161.095 55.9576 160.688 56.3696 160.402 56.8628C160.129 57.3621 159.99 57.9235 159.998 58.4925C160.006 59.0615 160.161 59.6189 160.447 60.1103C160.447 60.1103 156.615 60.7028 157.357 64.1378C157.74 65.8928 160.065 65.7578 160.065 65.7578L162.195 76.8353C162.15 76.8803 162.787 78.2078 163.455 77.9753C164.089 77.6579 164.612 77.1558 164.955 76.5353C165.484 75.9232 165.914 75.2324 166.23 74.4878C166.379 74.111 166.401 73.6962 166.294 73.3055C166.188 72.9148 165.957 72.5692 165.637 72.3203C166.105 72.1644 166.522 71.8882 166.849 71.5196C167.175 71.1509 167.399 70.7028 167.497 70.2203C167.686 69.2531 167.699 68.2596 167.535 67.2878C167.385 65.8478 167.23 64.4078 167.07 62.9678C168.051 63.0002 169.023 62.7637 169.879 62.2838C170.736 61.804 171.445 61.0991 171.93 60.2453C172.268 60.5191 172.661 60.718 173.081 60.8292C173.502 60.9404 173.941 60.9613 174.371 60.8904C174.8 60.8196 175.21 60.6586 175.572 60.4182C175.935 60.1777 176.243 59.8632 176.475 59.4953C176.758 60.4739 177.401 61.3089 178.275 61.8321C179.149 62.3554 180.189 62.528 181.185 62.3153C180.892 63.4178 182.82 64.5653 183.892 64.9628C184.739 65.1341 185.618 65.0262 186.397 64.6553C187.043 65.0933 187.762 65.4109 188.52 65.5928H188.64C190.14 65.8478 191.73 64.5728 192.562 63.2828C192.949 63.3616 193.346 63.3616 193.732 63.2828C194.397 63.0795 194.974 62.6597 195.373 62.0902C195.771 61.5207 195.967 60.8343 195.93 60.1403Z" fill="#263238"/>
<path d="M152.122 140.705C152.122 140.758 151.117 140.293 149.497 139.633C147.394 138.754 145.241 138.003 143.047 137.383C140.855 136.782 138.628 136.311 136.38 135.973C134.647 135.71 133.567 135.605 133.575 135.538C133.824 135.507 134.076 135.507 134.325 135.538C134.82 135.538 135.525 135.605 136.402 135.703C140.963 136.229 145.414 137.461 149.595 139.355C150.39 139.723 151.027 140.038 151.462 140.278C151.897 140.518 152.137 140.675 152.122 140.705Z" fill="white"/>
<path d="M145.275 187.625C145.235 187.565 145.202 187.499 145.178 187.43L144.938 186.845L144.038 184.595C143.288 182.615 142.17 179.743 140.963 176.15C139.505 171.948 138.35 167.647 137.505 163.28C137.013 160.682 136.692 158.054 136.545 155.413C136.407 152.589 136.485 149.758 136.778 146.945C137.423 141.533 138.425 136.168 139.778 130.888C140.94 126.005 142.08 121.633 143.093 117.973C144.105 114.313 144.975 111.373 145.598 109.34C145.913 108.35 146.153 107.57 146.348 107.008L146.55 106.408C146.567 106.337 146.595 106.268 146.633 106.205C146.627 106.28 146.612 106.353 146.588 106.423L146.423 107.03C146.265 107.6 146.04 108.388 145.755 109.385C145.178 111.425 144.345 114.38 143.37 118.048C142.395 121.715 141.285 126.088 140.138 130.97C138.811 136.239 137.824 141.588 137.183 146.983C136.891 149.775 136.811 152.586 136.943 155.39C137.085 158.003 137.396 160.603 137.873 163.175C138.692 167.533 139.812 171.828 141.225 176.03C142.403 179.63 143.475 182.51 144.18 184.505C144.533 185.488 144.81 186.253 145.013 186.808L145.215 187.408C145.244 187.478 145.264 187.551 145.275 187.625Z" fill="white"/>
<path d="M150.908 165.065C150.908 165.065 150.705 165.2 150.315 165.373C149.925 165.545 149.34 165.77 148.62 166.025C146.731 166.684 144.799 167.21 142.838 167.6C140.877 167.985 138.892 168.235 136.898 168.35C136.148 168.388 135.51 168.395 135.083 168.388C134.859 168.407 134.633 168.389 134.415 168.335C135.229 168.198 136.05 168.11 136.875 168.073C138.375 167.923 140.483 167.668 142.763 167.218C145.043 166.768 147.075 166.205 148.538 165.763C149.315 165.489 150.106 165.256 150.908 165.065Z" fill="white"/>
<path d="M157.29 117.53C157.23 117.575 156.623 116.63 155.378 115.34C154.651 114.592 153.863 113.904 153.023 113.285C151.986 112.534 150.881 111.881 149.723 111.335C148.558 110.81 147.348 110.391 146.108 110.083C145.09 109.84 144.054 109.685 143.01 109.618C141.225 109.505 140.115 109.655 140.108 109.573C140.351 109.496 140.603 109.448 140.858 109.43C141.161 109.386 141.466 109.361 141.773 109.355C142.182 109.332 142.593 109.332 143.003 109.355C144.067 109.387 145.127 109.517 146.168 109.745C147.439 110.037 148.678 110.457 149.865 110.998C151.045 111.557 152.168 112.231 153.218 113.008C154.061 113.656 154.844 114.379 155.558 115.168C155.838 115.468 156.1 115.783 156.345 116.113C156.538 116.351 156.716 116.602 156.878 116.863C157.042 117.068 157.18 117.292 157.29 117.53Z" fill="white"/>
<path d="M163.71 190.28C163.703 190.198 163.703 190.115 163.71 190.033V189.328C163.71 188.675 163.71 187.76 163.71 186.598C163.71 184.205 163.793 180.785 163.845 176.57C164.003 168.08 164.213 156.395 164.453 143.495C164.565 137.03 164.655 130.88 164.453 125.285C164.355 122.495 164.175 119.84 163.935 117.365C163.751 115.071 163.377 112.796 162.818 110.563C162.344 108.726 161.585 106.974 160.568 105.373C159.804 104.164 158.849 103.087 157.74 102.185C157.035 101.618 156.264 101.137 155.445 100.753C154.875 100.498 154.56 100.4 154.568 100.378C154.878 100.454 155.182 100.557 155.475 100.685C156.319 101.036 157.111 101.501 157.83 102.065C158.974 102.96 159.962 104.037 160.755 105.253C161.798 106.87 162.578 108.642 163.065 110.503C163.65 112.745 164.044 115.034 164.243 117.343C164.498 119.825 164.685 122.48 164.798 125.278C165.023 130.88 164.94 137.045 164.798 143.503C164.513 156.41 164.265 168.095 164.048 176.585C163.943 180.8 163.853 184.213 163.785 186.605C163.785 187.775 163.718 188.683 163.695 189.335C163.695 189.628 163.695 189.86 163.695 190.04C163.708 190.12 163.713 190.2 163.71 190.28Z" fill="white"/>
<path d="M175.823 174.298C175.503 174.304 175.183 174.274 174.87 174.208C174.27 174.118 173.37 173.983 172.313 173.795C170.153 173.428 167.183 172.873 163.913 172.198C160.643 171.523 157.688 170.855 155.565 170.338C154.5 170.075 153.645 169.858 153.053 169.7C152.74 169.638 152.435 169.539 152.145 169.408C152.464 169.422 152.781 169.47 153.09 169.55L155.625 170.068L163.988 171.815L172.365 173.525L174.9 174.058C175.215 174.107 175.524 174.187 175.823 174.298Z" fill="white"/>
<path d="M177.855 147.403C177.855 147.508 171.855 147.148 164.407 146.593C156.96 146.038 150.975 145.498 150.982 145.393C150.99 145.288 156.982 145.648 164.437 146.203C171.892 146.758 177.862 147.298 177.855 147.403Z" fill="white"/>
<path d="M179.82 123.733C179.502 123.804 179.178 123.844 178.853 123.853C178.23 123.905 177.353 123.965 176.205 124.025C173.955 124.138 170.873 124.228 167.46 124.205C164.048 124.183 160.943 124.055 158.708 123.92C157.59 123.845 156.69 123.778 156.06 123.718C155.736 123.711 155.414 123.665 155.1 123.583C155.424 123.547 155.751 123.547 156.075 123.583L158.723 123.658C160.973 123.725 164.048 123.808 167.46 123.83C170.873 123.853 173.963 123.83 176.198 123.763L178.845 123.718C179.17 123.686 179.497 123.691 179.82 123.733Z" fill="white"/>
<path d="M163.853 101.623C163.268 101.815 162.669 101.956 162.06 102.043C160.619 102.346 159.195 102.721 157.793 103.168C156.15 103.7 154.703 104.293 153.668 104.743C153.123 105.036 152.556 105.287 151.973 105.493C152.453 105.104 152.982 104.782 153.548 104.533C156.217 103.173 159.085 102.244 162.045 101.78C162.638 101.652 163.246 101.599 163.853 101.623Z" fill="white"/>
<path d="M178.868 110.098C178.616 109.93 178.384 109.734 178.178 109.513L176.378 107.81C174.878 106.378 172.755 104.413 170.378 102.313C168 100.213 165.773 98.3604 164.153 97.0629L162.248 95.4954C162 95.3162 161.774 95.1099 161.573 94.8804C161.839 95.0187 162.091 95.1846 162.323 95.3754C162.803 95.7054 163.485 96.2079 164.31 96.8754C165.975 98.1429 168.225 99.9579 170.618 102.073C173.01 104.188 175.118 106.183 176.565 107.668C177.315 108.418 177.885 109.025 178.283 109.453C178.499 109.647 178.695 109.863 178.868 110.098Z" fill="white"/>
<path d="M173.955 102.005C173.305 103.011 172.55 103.947 171.705 104.795C170.938 105.725 170.076 106.572 169.133 107.323C169.776 106.312 170.53 105.376 171.383 104.533C172.145 103.599 173.008 102.751 173.955 102.005Z" fill="white"/>
<path d="M185.745 124.168C184.824 124.212 183.901 124.185 182.985 124.085C182.064 124.107 181.144 124.052 180.232 123.92C181.133 123.662 182.077 123.586 183.007 123.695C183.942 123.668 184.873 123.828 185.745 124.168Z" fill="white"/>
<path d="M183.975 149.188C183.05 149.358 182.106 149.401 181.17 149.315C180.23 149.36 179.288 149.272 178.372 149.053C179.297 148.883 180.241 148.84 181.177 148.925C182.118 148.882 183.059 148.97 183.975 149.188Z" fill="white"/>
<path d="M183.472 115.108C183.482 115.175 183.482 115.243 183.472 115.31V115.91C183.472 116.465 183.472 117.238 183.472 118.22C183.472 119.203 183.472 120.47 183.472 121.873C183.472 123.275 183.427 124.918 183.367 126.71C183.165 133.88 182.55 143.773 181.777 154.685C181.005 165.598 180.345 175.483 180.067 182.645C179.985 184.438 179.932 186.058 179.902 187.483C179.872 188.908 179.82 190.13 179.82 191.128C179.82 192.125 179.82 192.883 179.775 193.438C179.775 193.685 179.775 193.88 179.775 194.038C179.784 194.108 179.784 194.178 179.775 194.248C179.766 194.178 179.766 194.108 179.775 194.038C179.775 193.88 179.775 193.685 179.775 193.438C179.775 192.883 179.775 192.11 179.737 191.128C179.7 190.145 179.737 188.878 179.737 187.475C179.737 186.073 179.782 184.43 179.842 182.638C180.052 175.468 180.675 165.575 181.44 154.663C182.205 143.75 182.865 133.865 183.142 126.703C183.225 124.91 183.27 123.29 183.307 121.873C183.345 120.455 183.382 119.218 183.39 118.22C183.397 117.223 183.39 116.465 183.427 115.91V115.31C183.465 115.175 183.472 115.108 183.472 115.108Z" fill="white"/>
<path d="M183.105 174.193C181.96 174.604 180.773 174.888 179.565 175.04C178.383 175.326 177.173 175.482 175.958 175.505C177.105 175.102 178.292 174.818 179.498 174.658C180.68 174.377 181.89 174.221 183.105 174.193Z" fill="white"/>
<path d="M197.228 144.575C196.605 145.052 195.948 145.483 195.263 145.865C194.033 146.615 192.345 147.703 190.53 148.963C188.715 150.223 187.118 151.423 185.97 152.308C185.372 152.815 184.741 153.281 184.08 153.703C184.595 153.107 185.17 152.566 185.798 152.09C186.908 151.153 188.483 149.908 190.298 148.64C192.113 147.373 193.838 146.33 195.105 145.64C195.777 145.219 196.488 144.863 197.228 144.575Z" fill="white"/>
<path d="M194.835 154.64C194.435 154.101 194.086 153.526 193.793 152.923C193.178 151.843 192.293 150.365 191.325 148.768C190.358 147.17 189.368 145.768 188.67 144.725C188.26 144.192 187.896 143.625 187.583 143.03C188.074 143.481 188.514 143.984 188.895 144.53C189.645 145.513 190.65 146.915 191.655 148.528C192.66 150.14 193.485 151.648 194.033 152.765C194.369 153.359 194.638 153.987 194.835 154.64Z" fill="white"/>
</svg>
