<svg width="18" height="20" viewBox="0 0 18 20" fill="none" xmlns="http://www.w3.org/2000/svg">
<path fill-rule="evenodd" clip-rule="evenodd" d="M1.09606 3.65885C0.75 4.1519 0.75 5.61746 0.75 8.54858V9.99206C0.75 15.1603 4.63572 17.6683 7.07368 18.7333C7.73501 19.0222 8.06568 19.1666 9 19.1666C9.93432 19.1666 10.265 19.0222 10.9263 18.7333C13.3643 17.6683 17.25 15.1603 17.25 9.99206V8.54858C17.25 5.61746 17.25 4.1519 16.9039 3.65885C16.5579 3.16581 15.1799 2.69411 12.4238 1.75071L11.8988 1.57097C10.4621 1.0792 9.74377 0.833313 9 0.833313C8.25623 0.833313 7.5379 1.0792 6.10125 1.57097L5.57617 1.75071C2.82013 2.69411 1.44211 3.16581 1.09606 3.65885ZM11.8045 8.62453C12.0574 8.3413 12.0328 7.9067 11.7496 7.65381C11.4663 7.40093 11.0317 7.42553 10.7788 7.70876L8.01786 10.8011L7.22117 9.90876C6.96828 9.62553 6.53368 9.60093 6.25045 9.85381C5.96722 10.1067 5.94262 10.5413 6.1955 10.8245L7.50503 12.2912C7.63546 12.4373 7.82201 12.5208 8.01786 12.5208C8.2137 12.5208 8.40025 12.4373 8.53069 12.2912L11.8045 8.62453Z" fill="#007AFF"/>
</svg>
