<svg width="19" height="20" viewBox="0 0 19 20" fill="none" xmlns="http://www.w3.org/2000/svg">
<path fill-rule="evenodd" clip-rule="evenodd" d="M11.0889 0.972898C10.7494 0.833344 10.3191 0.833344 9.45833 0.833344C8.5976 0.833344 8.16724 0.833344 7.82776 0.972898C7.37512 1.15897 7.0155 1.51587 6.82801 1.96509C6.74242 2.17016 6.70893 2.40864 6.69582 2.7565C6.67656 3.26772 6.41239 3.74091 5.96599 3.9967C5.51958 4.25248 4.97458 4.24292 4.51886 4.00387C4.20875 3.8412 3.9839 3.75075 3.76216 3.72178C3.27642 3.65831 2.78517 3.78894 2.39648 4.08494C2.10496 4.30694 1.88978 4.67683 1.45941 5.41661C1.02905 6.1564 0.813863 6.52629 0.765901 6.88784C0.701953 7.36991 0.833583 7.85745 1.13183 8.2432C1.26797 8.41927 1.45929 8.56728 1.75623 8.75245C2.19276 9.02466 2.47363 9.48838 2.4736 10C2.47357 10.5116 2.19271 10.9753 1.75623 11.2475C1.45924 11.4326 1.26789 11.5807 1.13174 11.7568C0.833492 12.1425 0.701862 12.63 0.765811 13.1121C0.813773 13.4737 1.02896 13.8436 1.45932 14.5833C1.88969 15.3231 2.10487 15.693 2.39639 15.915C2.78508 16.211 3.27633 16.3416 3.76207 16.2782C3.98379 16.2492 4.20863 16.1588 4.51872 15.9961C4.97448 15.7571 5.51951 15.7475 5.96594 16.0033C6.41238 16.2591 6.67656 16.7323 6.69582 17.2436C6.70893 17.5914 6.74243 17.8299 6.82801 18.0349C7.0155 18.4841 7.37512 18.841 7.82776 19.0271C8.16724 19.1667 8.5976 19.1667 9.45833 19.1667C10.3191 19.1667 10.7494 19.1667 11.0889 19.0271C11.5415 18.841 11.9012 18.4841 12.0887 18.0349C12.1742 17.8299 12.2077 17.5914 12.2208 17.2435C12.2401 16.7323 12.5042 16.2591 12.9506 16.0033C13.3971 15.7475 13.9421 15.757 14.3979 15.9961C14.708 16.1587 14.9328 16.2491 15.1545 16.2781C15.6403 16.3416 16.1315 16.2109 16.5202 15.915C16.8117 15.693 17.0269 15.3231 17.4573 14.5833C17.8876 13.8435 18.1028 13.4736 18.1508 13.1121C18.2147 12.63 18.0831 12.1424 17.7848 11.7567C17.6487 11.5806 17.4574 11.4326 17.1604 11.2474C16.7239 10.9752 16.443 10.5115 16.4431 9.99993C16.4431 9.48837 16.7239 9.02475 17.1604 8.7526C17.4574 8.56739 17.6488 8.41936 17.7849 8.24326C18.0832 7.85751 18.2148 7.36997 18.1509 6.8879C18.1029 6.52635 17.8877 6.15646 17.4573 5.41668C17.027 4.6769 16.8118 4.307 16.5203 4.08501C16.1316 3.78901 15.6403 3.65837 15.1546 3.72184C14.9329 3.75081 14.708 3.84125 14.3979 4.00391C13.9422 4.24297 13.3972 4.25253 12.9507 3.99673C12.5043 3.74092 12.2401 3.2677 12.2208 2.75645C12.2077 2.40861 12.1742 2.17015 12.0887 1.96509C11.9012 1.51587 11.5415 1.15897 11.0889 0.972898ZM9.45833 12.75C10.9887 12.75 12.2293 11.5188 12.2293 10C12.2293 8.48123 10.9887 7.25001 9.45833 7.25001C7.92799 7.25001 6.68739 8.48123 6.68739 10C6.68739 11.5188 7.92799 12.75 9.45833 12.75Z" fill="#007AFF"/>
</svg>
