<svg width="16" height="19" viewBox="0 0 16 19" fill="none" xmlns="http://www.w3.org/2000/svg">
<path d="M10.9806 8.79826C10.0762 7.71611 9.62402 7.17504 9.10419 7.25838C8.58436 7.34172 8.34117 7.99428 7.85479 9.29939L7.72896 9.63704C7.59074 10.0079 7.52164 10.1934 7.38718 10.33C7.25271 10.4666 7.06812 10.5388 6.69893 10.6834L6.36282 10.8151C5.06364 11.3239 4.41405 11.5783 4.33996 12.0984C4.26587 12.6184 4.81636 13.0596 5.91733 13.9421L6.20216 14.1704C6.51503 14.4212 6.67145 14.5465 6.762 14.7182C6.85255 14.8898 6.86697 15.0882 6.89581 15.4851L6.92206 15.8464C7.02353 17.2431 7.07427 17.9414 7.54832 18.1794C8.02236 18.4175 8.60577 18.0376 9.77258 17.2779L10.0745 17.0813C10.406 16.8654 10.5718 16.7575 10.7622 16.727C10.9527 16.6964 11.1462 16.7468 11.5332 16.8475L11.8855 16.9391C13.2474 17.2935 13.9284 17.4706 14.2954 17.0977C14.6625 16.7248 14.4726 16.0488 14.0927 14.6968L13.9945 14.3471C13.8865 13.9629 13.8325 13.7708 13.8597 13.5803C13.8868 13.3898 13.992 13.2225 14.2023 12.8878L14.3939 12.5831C15.1341 11.4055 15.5042 10.8167 15.257 10.3482C15.0098 9.87964 14.309 9.84171 12.9075 9.76585L12.5449 9.74623C12.1466 9.72467 11.9474 9.71389 11.7738 9.62669C11.6001 9.53949 11.4716 9.38573 11.2146 9.07822L10.9806 8.79826Z" fill="#007AFF"/>
<path d="M10.6381 3.73663L10.8059 4.21497C10.9902 4.74037 11.0823 5.00308 11.2616 5.19659C11.4409 5.39011 11.687 5.49253 12.1792 5.69737L12.6274 5.88387C14.3596 6.60472 15.2258 6.96516 15.3245 7.70185C15.3657 8.00851 15.2625 8.29582 15.0222 8.61693C14.9409 8.59495 14.8627 8.57703 14.7892 8.56208C14.3069 8.46401 13.6934 8.43096 13.0682 8.39727L12.6193 8.37299C12.5329 8.36832 12.4658 8.36466 12.4083 8.36094C12.3702 8.31635 12.3263 8.26388 12.2698 8.19621L11.9805 7.85002C11.5768 7.36678 11.1818 6.89397 10.8145 6.56574C10.4228 6.2157 9.76805 5.75916 8.88664 5.90047C7.99587 6.04328 7.52071 6.69142 7.26437 7.15402C7.02686 7.58263 6.81326 8.15625 6.597 8.73701L6.44064 9.15663C6.41422 9.22752 6.39303 9.28433 6.37437 9.33318C6.32549 9.35279 6.26863 9.37508 6.1976 9.4029L5.78008 9.56641C5.20178 9.79274 4.6312 10.016 4.20635 10.2605C3.74917 10.5235 3.1063 11.0094 2.97882 11.9042C2.85256 12.7905 3.32457 13.4375 3.68187 13.8211C3.94816 14.1071 4.30595 14.4087 4.68796 14.7179C3.2501 15.108 2.48528 15.2535 2.0506 14.7843C1.56118 14.256 1.81441 13.2983 2.32086 11.383L2.45188 10.8875C2.5958 10.3432 2.66776 10.0711 2.63158 9.80121C2.59539 9.53134 2.45516 9.2943 2.17469 8.82022L1.91935 8.3886C0.932387 6.72027 0.438904 5.88611 0.768488 5.22238C1.09807 4.55865 2.03245 4.50492 3.90121 4.39745L4.38468 4.36965C4.91572 4.33911 5.18124 4.32385 5.41278 4.20031C5.64431 4.07677 5.81565 3.85895 6.15833 3.42331L6.4703 3.02669C7.67619 1.49365 8.27913 0.727133 8.97224 0.845197C9.66535 0.963261 9.9896 1.88772 10.6381 3.73663Z" fill="#007AFF"/>
</svg>
