<svg width="30" height="30" viewBox="0 0 30 30" fill="none" xmlns="http://www.w3.org/2000/svg">
<path fill-rule="evenodd" clip-rule="evenodd" d="M15 1.56252C15.2737 1.56252 15.5337 1.68211 15.7118 1.8899L19.4618 6.2649C19.7988 6.65802 19.7533 7.24986 19.3601 7.58682C18.967 7.92378 18.3752 7.87825 18.0382 7.48513L15.9375 5.03432L15.9375 18.75C15.9375 19.2678 15.5178 19.6875 15 19.6875C14.4823 19.6875 14.0625 19.2678 14.0625 18.75L14.0625 5.03432L11.9618 7.48513C11.6249 7.87825 11.033 7.92378 10.6399 7.58682C10.2468 7.24986 10.2013 6.65802 10.5382 6.2649L14.2882 1.8899C14.4663 1.68211 14.7263 1.56252 15 1.56252ZM10.7619 10.315C11.2796 10.3121 11.7017 10.7295 11.7046 11.2472C11.7075 11.765 11.2901 12.1871 10.7723 12.1899C9.40544 12.1976 8.43658 12.233 7.70127 12.3681C6.99276 12.4983 6.58267 12.7072 6.27835 13.0115C5.9324 13.3575 5.70684 13.8432 5.58353 14.7604C5.45658 15.7046 5.45459 16.956 5.45459 18.7503V20.0003C5.45459 21.7946 5.45658 23.0459 5.58352 23.9901C5.70684 24.9074 5.9324 25.3931 6.27835 25.739C6.62431 26.085 7.11002 26.3105 8.02724 26.4339C8.97143 26.5608 10.2228 26.5628 12.0171 26.5628H18.1535C19.9477 26.5628 21.1991 26.5608 22.1433 26.4339C23.0605 26.3105 23.5462 26.085 23.8922 25.739C24.2381 25.3931 24.4637 24.9074 24.587 23.9901C24.714 23.0459 24.716 21.7946 24.716 20.0003V18.7503C24.716 16.956 24.714 15.7046 24.587 14.7604C24.4637 13.8432 24.2381 13.3575 23.8922 13.0115C23.5879 12.7072 23.1778 12.4983 22.4693 12.3681C21.734 12.233 20.7651 12.1976 19.3982 12.1899C18.8805 12.1871 18.4631 11.765 18.466 11.2472C18.4688 10.7295 18.8909 10.3121 19.4087 10.315C20.7606 10.3225 21.8873 10.3548 22.808 10.524C23.7555 10.698 24.5619 11.0296 25.218 11.6857C25.9704 12.4381 26.294 13.3855 26.4453 14.5106C26.591 15.5943 26.591 16.9722 26.591 18.6817V20.0689C26.591 21.7784 26.591 23.1563 26.4453 24.24C26.294 25.3651 25.9704 26.3125 25.218 27.0649C24.4656 27.8172 23.5183 28.1409 22.3931 28.2921C21.3094 28.4378 19.9315 28.4378 18.222 28.4378H11.9485C10.239 28.4378 8.86111 28.4378 7.7774 28.2921C6.65227 28.1409 5.70492 27.8172 4.95253 27.0649C4.20013 26.3125 3.87652 25.3651 3.72524 24.24C3.57954 23.1563 3.57956 21.7784 3.57959 20.0689V18.6817C3.57956 16.9722 3.57954 15.5943 3.72524 14.5106C3.87652 13.3855 4.20013 12.4381 4.95253 11.6857C5.60869 11.0296 6.41503 10.698 7.36253 10.524C8.28323 10.3548 9.40996 10.3225 10.7619 10.315Z" fill="white"/>
</svg>
