<svg width="20" height="20" viewBox="0 0 20 20" fill="none" xmlns="http://www.w3.org/2000/svg">
<path fill-rule="evenodd" clip-rule="evenodd" d="M9.99998 13.4375C10.3797 13.4375 10.6875 13.1297 10.6875 12.75V2.6918L12.228 4.48907C12.4751 4.77735 12.9091 4.81074 13.1974 4.56364C13.4857 4.31653 13.5191 3.88251 13.272 3.59423L10.522 0.385894C10.3914 0.233512 10.2007 0.145813 9.99998 0.145813C9.79928 0.145813 9.6086 0.233512 9.47799 0.385894L6.72799 3.59423C6.48089 3.88251 6.51427 4.31653 6.80256 4.56364C7.09085 4.81074 7.52487 4.77735 7.77197 4.48907L9.31248 2.6918L9.31248 12.75C9.31248 13.1297 9.62028 13.4375 9.99998 13.4375Z" fill="#007AFF"/>
<path d="M13.6666 7.24998C13.023 7.24998 12.7011 7.24998 12.4699 7.40445C12.3698 7.47134 12.2839 7.55729 12.217 7.6574C12.0625 7.88859 12.0625 8.21043 12.0625 8.85411L12.0625 12.75C12.0625 13.8891 11.1391 14.8125 10 14.8125C8.86093 14.8125 7.93752 13.8891 7.93752 12.75L7.93752 8.85418C7.93752 8.21044 7.93752 7.88856 7.78301 7.65735C7.71614 7.55728 7.63022 7.47135 7.53015 7.40448C7.29893 7.24998 6.97706 7.24998 6.33331 7.24998C3.74059 7.24998 2.44422 7.24998 1.63877 8.05544C0.833313 8.86089 0.833313 10.1571 0.833313 12.7498V13.6664C0.833313 16.2592 0.833313 17.5555 1.63877 18.361C2.44422 19.1664 3.74059 19.1664 6.33331 19.1664H13.6666C16.2594 19.1664 17.5557 19.1664 18.3612 18.361C19.1666 17.5555 19.1666 16.2592 19.1666 13.6664V12.7498C19.1666 10.1571 19.1666 8.86089 18.3612 8.05543C17.5557 7.24998 16.2594 7.24998 13.6666 7.24998Z" fill="#007AFF"/>
</svg>
