<svg width="324" height="80" viewBox="0 0 324 80" fill="none" xmlns="http://www.w3.org/2000/svg">
<path d="M15.7453 62.0261C15.5455 61.4577 14.9228 61.1588 14.3544 61.3586L12.7296 61.9298L10.6473 62.6617C9.7907 58.613 12.0504 54.4596 16.0593 53.0504C20.0682 51.6412 24.4298 53.4672 26.295 57.1614L24.2126 57.8934L20.5295 59.188C19.9611 59.3878 19.6622 60.0106 19.862 60.579C20.0618 61.1474 20.6846 61.4462 21.253 61.2464L25.0266 59.9199L27.085 59.1964L27.8085 61.2547L25.7502 61.9783L21.9765 63.3047C21.4081 63.5045 21.1093 64.1273 21.3091 64.6957C21.5089 65.2641 22.1317 65.5629 22.7001 65.3631L26.3832 64.0684L28.4656 63.3365C29.3221 67.3852 27.0624 71.5386 23.0535 72.9478C19.0446 74.357 14.683 72.531 12.8179 68.8368L14.9002 68.1048L16.525 67.5337C17.0934 67.3339 17.3922 66.7112 17.1924 66.1428C16.9926 65.5744 16.3699 65.2756 15.8015 65.4754L14.0862 66.0783L12.0278 66.8018L11.3043 64.7435L13.3626 64.0199L15.0779 63.417C15.6463 63.2172 15.9451 62.5945 15.7453 62.0261Z" fill="#FAFBFB" fill-opacity="0.15"/>
<path fill-rule="evenodd" clip-rule="evenodd" d="M8.45792 66.5149C9.02632 66.3151 9.64907 66.6139 9.84887 67.1823L10.3312 68.5545C12.2626 74.0491 18.2825 76.9376 23.777 75.0062C29.2716 73.0748 32.16 67.0549 30.2287 61.5604L29.7463 60.1881C29.5465 59.6197 29.8453 58.997 30.4137 58.7972C30.9821 58.5974 31.6049 58.8962 31.8047 59.4646L32.287 60.8368C34.4961 67.1215 31.4805 73.9756 25.5145 76.6593L26.615 79.7903C26.8148 80.3587 26.516 80.9814 25.9476 81.1812C25.3792 81.381 24.7565 81.0822 24.5567 80.5138L23.4561 77.3828C17.1231 79.0224 10.482 75.5627 8.27287 69.2781L7.79051 67.9058C7.59071 67.3374 7.88952 66.7147 8.45792 66.5149Z" fill="#FAFBFB" fill-opacity="0.15"/>
<path d="M130.615 12.0615L126.381 6.36026C125.175 4.73596 124.572 3.92381 123.738 3.39419L123.004 6.96561C122.382 10.0461 122.071 11.5864 122.835 12.7366C123.599 13.8869 125.139 14.1979 128.22 14.8199L132.899 15.7647C132.611 14.7486 131.916 13.8137 130.615 12.0615Z" fill="#FAFBFB" fill-opacity="0.15"/>
<path fill-rule="evenodd" clip-rule="evenodd" d="M119.825 29.4476L114.597 28.392C109.668 27.3968 107.204 26.8992 105.982 25.0588C104.76 23.2185 105.257 20.754 106.253 15.8252L107.308 10.5974C108.303 5.66853 108.801 3.20411 110.641 1.98209C112.482 0.760075 114.959 1.26031 119.914 2.26077C120.706 2.42069 121.341 2.54884 121.87 2.67845C121.832 2.77937 121.801 2.88407 121.779 2.99174L121.019 6.69374C120.729 8.12759 120.473 9.39475 120.404 10.4439C120.33 11.5811 120.448 12.7571 121.169 13.843C121.89 14.9288 122.928 15.4941 124.005 15.8665C124.999 16.2101 126.266 16.4659 127.7 16.7553L127.824 16.7803L132.996 17.8247C132.911 18.5342 132.737 19.3912 132.507 20.5319L132.392 21.1032C131.397 26.032 130.899 28.4964 129.059 29.7184C127.218 30.9405 124.754 30.4428 119.825 29.4476ZM117.244 18.6422C117.576 19.0836 117.487 19.7105 117.046 20.0425L112.769 23.2596C112.54 23.4313 112.25 23.4972 111.97 23.4407C111.69 23.3842 111.447 23.2106 111.303 22.9638L109.957 20.6515C109.679 20.1742 109.84 19.562 110.317 19.2841C110.795 19.0061 111.407 19.1677 111.685 19.6449L112.465 20.9851L115.843 18.4442C116.285 18.1122 116.912 18.2009 117.244 18.6422Z" fill="#FAFBFB" fill-opacity="0.15"/>
<path fill-rule="evenodd" clip-rule="evenodd" d="M166.687 67.4118C165.3 60.6365 169.36 53.8373 176.121 51.9234C175.055 52.2251 174.239 52.961 173.66 53.8965C173.085 54.8273 172.709 56.0055 172.51 57.3288C172.31 58.66 172.286 60.1576 172.429 61.7348C172.543 62.9991 172.765 64.3036 173.083 65.6013L166.687 67.4118ZM167.231 69.3362L173.627 67.5257C174.037 68.7976 174.532 70.0246 175.097 71.1615C175.802 72.5797 176.607 73.8424 177.475 74.8712C178.338 75.894 179.276 76.7006 180.254 77.1916C181.237 77.6851 182.318 77.8837 183.384 77.582C176.622 79.4959 169.602 75.8329 167.231 69.3362Z" fill="#FAFBFB" fill-opacity="0.15"/>
<path d="M176.628 53.7135C176.275 53.8134 175.862 54.0925 175.469 54.7276C175.074 55.3673 174.756 56.2843 174.579 57.4613C174.403 58.6305 174.376 59.9894 174.51 61.4617C174.615 62.6212 174.818 63.8246 175.11 65.0277L183.851 62.5534C183.469 61.3758 183.011 60.2448 182.493 59.2022C181.835 57.8783 181.1 56.735 180.337 55.8314C179.57 54.9217 178.819 54.3073 178.146 53.9698C177.479 53.6348 176.981 53.6137 176.628 53.7135Z" fill="#FAFBFB" fill-opacity="0.15"/>
<path d="M177.013 70.3032C177.67 71.6271 178.405 72.7704 179.168 73.6741C179.935 74.5837 180.687 75.1982 181.359 75.5356C182.026 75.8707 182.524 75.8918 182.877 75.7919C183.23 75.692 183.643 75.4129 184.036 74.7779C184.432 74.1382 184.75 73.2211 184.926 72.0441C185.102 70.875 185.129 69.516 184.995 68.0437C184.89 66.8842 184.688 65.6808 184.396 64.4778L175.654 66.9521C176.036 68.1297 176.494 69.2606 177.013 70.3032Z" fill="#FAFBFB" fill-opacity="0.15"/>
<path d="M176.121 51.9234C177.187 51.6217 178.269 51.8203 179.252 52.3138C180.23 52.8048 181.167 53.6114 182.03 54.6342C182.898 55.663 183.704 56.9257 184.408 58.344C184.973 59.4809 185.469 60.7078 185.878 61.9797L192.274 60.1693C189.904 53.6725 182.883 50.0095 176.121 51.9234Z" fill="#FAFBFB" fill-opacity="0.15"/>
<path d="M187.077 67.7707C187.22 69.3479 187.196 70.8454 186.995 72.1766C186.796 73.5 186.421 74.6782 185.845 75.609C185.267 76.5444 184.45 77.2803 183.384 77.582C190.146 75.6681 194.205 68.869 192.819 62.0937L186.423 63.9041C186.741 65.2019 186.962 66.5063 187.077 67.7707Z" fill="#FAFBFB" fill-opacity="0.15"/>
<g clip-path="url(#clip0_27_3787)">
<path d="M229.518 3.63751C229.879 2.51763 230.06 1.9577 230.298 1.51967C231.348 -0.408591 233.472 -1.49652 235.65 -1.22153C236.145 -1.15906 236.705 -0.978423 237.825 -0.617144C238.316 -0.458852 238.561 -0.379706 238.79 -0.281595C239.775 0.141398 240.611 0.85186 241.187 1.757C241.32 1.96695 241.438 2.19639 241.673 2.65527L242.146 3.57876C242.847 4.94789 243.197 5.63245 243.706 6.17724C243.985 6.47652 244.298 6.74263 244.639 6.97032C245.258 7.38481 245.99 7.62095 247.454 8.09323L247.928 8.24619C251.268 9.32379 252.938 9.8626 253.709 11.1892C253.78 11.3112 253.844 11.4369 253.902 11.5658C254.528 12.9664 253.989 14.6365 252.912 17.9768L252.01 20.7711C250.466 25.5566 249.695 27.9493 247.728 28.9564C245.762 29.9634 243.369 29.1915 238.584 27.6477L233.508 26.0102C228.723 24.4664 226.33 23.6945 225.323 21.7283C224.316 19.762 225.088 17.3693 226.632 12.5838L229.518 3.63751Z" fill="#FAFBFB" fill-opacity="0.15"/>
<path fill-rule="evenodd" clip-rule="evenodd" d="M241.276 11.7041C241.445 11.1785 242.009 10.8898 242.534 11.0594L248.879 13.1062C249.405 13.2758 249.693 13.8393 249.524 14.365C249.354 14.8906 248.791 15.1792 248.265 15.0096L241.92 12.9628C241.395 12.7932 241.106 12.2297 241.276 11.7041Z" fill="white" fill-opacity="0.15"/>
<path d="M250.142 4.7867C249.956 4.69728 249.723 4.62242 249.259 4.47271L243.824 2.71919L244.136 3.35676C244.699 4.50479 244.919 4.9364 245.224 5.27375C245.402 5.46959 245.601 5.64329 245.818 5.79143C246.191 6.04662 246.642 6.19962 247.837 6.58519L248.261 6.72206C249.533 7.13241 250.559 7.46321 251.336 7.8306C251.53 7.92223 251.714 8.0187 251.888 8.12262C252.077 6.73091 251.378 5.37998 250.142 4.7867Z" fill="#FAFBFB" fill-opacity="0.15"/>
</g>
<g clip-path="url(#clip1_27_3787)">
<path d="M310.679 52.5754L304.189 49.6924C302.34 48.8711 301.416 48.4604 300.429 48.4094L301.546 51.8801C302.519 54.8684 303.005 56.3625 304.236 56.9886C305.467 57.6146 306.961 57.1281 309.949 56.1552L314.488 54.6773C313.737 53.9341 312.673 53.4614 310.679 52.5754Z" fill="#FAFBFB" fill-opacity="0.15"/>
<path fill-rule="evenodd" clip-rule="evenodd" d="M309.831 73.0201L304.76 74.6713C299.979 76.2281 297.588 77.0065 295.619 76.0048C293.65 75.003 292.872 72.6124 291.315 67.8312L289.664 62.7599C288.107 57.9786 287.329 55.588 288.33 53.619C289.332 51.65 291.735 50.8676 296.542 49.3026C297.31 49.0524 297.926 48.852 298.451 48.7044C298.467 48.8113 298.491 48.9176 298.525 49.0222L299.683 52.6195C300.136 54.0105 300.536 55.2398 300.992 56.1872C301.486 57.2142 302.167 58.1801 303.329 58.7711C304.491 59.3622 305.673 59.3441 306.794 59.1388C307.828 58.9494 309.057 58.5491 310.448 58.0961L310.568 58.0569L315.585 56.4233C315.86 57.083 316.131 57.9144 316.491 59.0209L316.671 59.5751C318.228 64.3564 319.007 66.747 318.005 68.716C317.003 70.6849 314.612 71.4633 309.831 73.0201ZM311.158 64.1748C311.858 63.9468 312.148 62.9105 311.807 61.8602C311.465 60.8099 310.62 60.1433 309.919 60.3713C309.219 60.5993 308.929 61.6355 309.271 62.6858C309.613 63.7361 310.458 64.4027 311.158 64.1748ZM300.672 69.1091C300.821 68.5773 301.373 68.267 301.904 68.4161C304.319 69.0927 306.903 68.2512 308.457 66.2827C308.799 65.8492 309.427 65.775 309.861 66.1171C310.295 66.4592 310.369 67.088 310.027 67.5216C307.973 70.1239 304.557 71.2364 301.365 70.3419C300.833 70.1929 300.523 69.6409 300.672 69.1091ZM298.48 68.3028C299.18 68.0748 299.47 67.0385 299.128 65.9883C298.786 64.938 297.941 64.2713 297.241 64.4993C296.541 64.7273 296.251 65.7636 296.593 66.8139C296.935 67.8642 297.779 68.5308 298.48 68.3028Z" fill="#FAFBFB" fill-opacity="0.15"/>
</g>
<defs>
<clipPath id="clip0_27_3787">
<rect width="32" height="32" fill="white" transform="translate(229.825 -6) rotate(17.88)"/>
</clipPath>
<clipPath id="clip1_27_3787">
<rect width="32" height="32" fill="white" transform="translate(283 50.9073) rotate(-18.0352)"/>
</clipPath>
</defs>
</svg>
