<svg width="20" height="20" viewBox="0 0 20 20" fill="none" xmlns="http://www.w3.org/2000/svg">
<path d="M7.25016 10C7.25016 10.5063 6.83976 10.9167 6.3335 10.9167C5.82723 10.9167 5.41683 10.5063 5.41683 10C5.41683 9.49375 5.82723 9.08334 6.3335 9.08334C6.83976 9.08334 7.25016 9.49375 7.25016 10Z" fill="#007AFF"/>
<path d="M10.9168 10C10.9168 10.5063 10.5064 10.9167 10.0002 10.9167C9.4939 10.9167 9.0835 10.5063 9.0835 10C9.0835 9.49375 9.4939 9.08334 10.0002 9.08334C10.5064 9.08334 10.9168 9.49375 10.9168 10Z" fill="#007AFF"/>
<path d="M13.6668 10.9167C14.1731 10.9167 14.5835 10.5063 14.5835 10C14.5835 9.49375 14.1731 9.08334 13.6668 9.08334C13.1606 9.08334 12.7502 9.49375 12.7502 10C12.7502 10.5063 13.1606 10.9167 13.6668 10.9167Z" fill="#007AFF"/>
<path fill-rule="evenodd" clip-rule="evenodd" d="M10.0002 0.145844C4.55786 0.145844 0.145996 4.5577 0.145996 10C0.145996 15.4423 4.55786 19.8542 10.0002 19.8542C15.4425 19.8542 19.8543 15.4423 19.8543 10C19.8543 4.5577 15.4425 0.145844 10.0002 0.145844ZM1.521 10C1.521 5.3171 5.31725 1.52084 10.0002 1.52084C14.6831 1.52084 18.4793 5.3171 18.4793 10C18.4793 14.6829 14.6831 18.4792 10.0002 18.4792C5.31725 18.4792 1.521 14.6829 1.521 10Z" fill="#007AFF"/>
</svg>
