<svg width="52" height="48" viewBox="0 0 52 48" fill="none" xmlns="http://www.w3.org/2000/svg">
<path d="M46.499 29.5816L46.988 25.0358C47.2489 22.6104 47.4211 21.0088 47.2859 19.9997L47.3332 20C49.5423 20 51.3332 18.2091 51.3332 16C51.3332 13.7909 49.5423 12 47.3332 12C45.124 12 43.3332 13.7909 43.3332 16C43.3332 16.9991 43.6995 17.9126 44.3051 18.6137C43.4357 19.1503 42.2989 20.2826 40.5879 21.987L40.5878 21.9871C39.2697 23.3001 38.6106 23.9566 37.8753 24.0583C37.4679 24.1147 37.0528 24.0567 36.6766 23.8911C35.9977 23.5921 35.545 22.7805 34.6397 21.1572L29.8677 12.6011C29.3092 11.5997 28.8418 10.7615 28.4203 10.0871C30.1492 9.20499 31.3332 7.40742 31.3332 5.33333C31.3332 2.38781 28.9454 0 25.9998 0C23.0543 0 20.6665 2.38781 20.6665 5.33333C20.6665 7.40743 21.8505 9.20499 23.5794 10.0871C23.1579 10.7616 22.6905 11.5996 22.132 12.6011L17.36 21.1572C16.4547 22.7805 16.002 23.5921 15.3231 23.8911C14.9469 24.0567 14.5318 24.1147 14.1244 24.0583C13.3891 23.9566 12.73 23.3001 11.4118 21.9871C9.70081 20.2827 8.564 19.1503 7.69459 18.6137C8.30021 17.9126 8.6665 16.9991 8.6665 16C8.6665 13.7909 6.87564 12 4.6665 12C2.45736 12 0.666504 13.7909 0.666504 16C0.666504 18.2091 2.45736 20 4.6665 20L4.71374 19.9997C4.57855 21.0088 4.75081 22.6104 5.01169 25.0358L5.50064 29.5816C5.77205 32.1048 5.99774 34.5057 6.27417 36.6667H45.7255C46.0019 34.5057 46.2276 32.1048 46.499 29.5816Z" fill="white"/>
<path d="M23.0987 48H28.901C36.4635 48 40.2447 48 42.7676 45.7418C43.8688 44.7561 44.5661 42.9792 45.0693 40.6667H6.93039C7.43357 42.9792 8.13086 44.7561 9.23204 45.7418C11.755 48 15.5362 48 23.0987 48Z" fill="white"/>
</svg>
