<svg width="22" height="20" viewBox="0 0 22 20" fill="none" xmlns="http://www.w3.org/2000/svg">
<path fill-rule="evenodd" clip-rule="evenodd" d="M6.8084 5.2598C7.15921 5.2598 7.44359 5.55239 7.44359 5.91335C7.44359 6.27432 7.15921 6.56691 6.8084 6.56691H4.47955V7.87401H6.8084C7.15921 7.87401 7.44359 8.16665 7.44359 8.52757C7.44359 8.88853 7.15921 9.18117 6.8084 9.18117H4.5206C4.83183 11.6396 6.87494 13.5382 9.349 13.5382C9.7969 13.5382 10.2307 13.476 10.6427 13.3595C10.6447 12.7628 10.6567 12.1776 10.7224 11.675C10.8145 10.9702 11.0435 10.1294 11.7258 9.42726C11.8127 9.33787 11.9017 9.25609 11.9924 9.18117H10.6193C10.2685 9.18117 9.98414 8.88853 9.98414 8.52757C9.98414 8.16665 10.2685 7.87401 10.6193 7.87401H14.2185V6.56691H10.6193C10.2685 6.56691 9.98414 6.27432 9.98414 5.91335C9.98414 5.55239 10.2685 5.2598 10.6193 5.2598H14.1774C13.8662 2.80129 11.8231 0.902702 9.349 0.902702C6.87494 0.902702 4.83183 2.80129 4.5206 5.2598H6.8084ZM16.5411 10.3708C16.0125 12.5617 14.5632 14.3785 12.64 15.3611V13.8706C12.64 13.8677 12.64 13.8649 12.64 13.862C13.8629 13.0616 14.7918 11.8281 15.2232 10.3715C15.4742 10.368 15.7508 10.368 16.0563 10.368C16.2422 10.368 16.4015 10.368 16.5411 10.3708ZM13.8263 10.5008C13.5406 10.5763 13.3193 10.6949 13.1385 10.881C12.85 11.1778 12.7285 11.5794 12.6773 12.1851C13.1652 11.7148 13.559 11.1423 13.8263 10.5008ZM10.6423 14.7049V15.6218C10.6423 15.6451 10.6423 15.6683 10.6423 15.6916V15.7271C10.6422 15.8303 10.6422 15.9336 10.6424 16.0367C10.4261 16.0759 10.2065 16.1054 9.98414 16.1249V18.1131C9.98414 18.4741 9.69977 18.7667 9.349 18.7667C8.99824 18.7667 8.71387 18.4741 8.71387 18.1131V16.1249C4.91873 15.7934 1.93896 12.5185 1.93896 8.52757V7.65619C1.93896 7.29523 2.22333 7.00259 2.57411 7.00259C2.9249 7.00259 3.20926 7.29523 3.20926 7.65619V8.52757C3.20926 12.0168 5.95809 14.8453 9.349 14.8453C9.79265 14.8453 10.2253 14.797 10.6423 14.7049Z" fill="#007AFF"/>
<path fill-rule="evenodd" clip-rule="evenodd" d="M17.7455 19.1244H16.0437C14.4393 19.1244 13.637 19.1244 13.1386 18.6114C12.6401 18.0985 12.6401 17.2729 12.6401 15.6218V13.8706C12.6401 12.2194 12.6401 11.3939 13.1386 10.881C13.637 10.368 14.4435 10.368 16.0564 10.368C16.3142 10.368 16.5208 10.368 16.6946 10.3753C16.6889 10.4103 16.686 10.446 16.6858 10.4821L16.6819 11.723C16.6819 12.2034 16.6818 12.6279 16.7265 12.9701C16.775 13.3409 16.8862 13.7117 17.1803 14.0144C17.4745 14.3171 17.8348 14.4315 18.1952 14.4814C18.5277 14.5274 18.9402 14.5274 19.407 14.5273H19.4473H21.131C21.1491 14.7612 21.1491 15.0483 21.1491 15.4305V15.6218C21.1491 17.2729 21.1491 18.0985 20.6507 18.6114C20.1522 19.1244 19.35 19.1244 17.7455 19.1244ZM14.0228 15.8407C14.0228 15.6594 14.1657 15.5124 14.3419 15.5124H17.7455C17.9218 15.5124 18.0646 15.6594 18.0646 15.8407C18.0646 16.0221 17.9218 16.1691 17.7455 16.1691H14.3419C14.1657 16.1691 14.0228 16.0221 14.0228 15.8407ZM14.0228 17.3731C14.0228 17.1917 14.1657 17.0447 14.3419 17.0447H16.6819C16.8581 17.0447 17.001 17.1917 17.001 17.3731C17.001 17.5545 16.8581 17.7015 16.6819 17.7015H14.3419C14.1657 17.7015 14.0228 17.5545 14.0228 17.3731Z" fill="#FFAF26"/>
<path d="M20.0224 12.8271L18.3381 11.2672C17.8583 10.8228 17.6184 10.6006 17.324 10.4843L17.3201 11.6815C17.3201 12.7135 17.3201 13.2294 17.6316 13.55C17.9431 13.8706 18.4445 13.8706 19.4473 13.8706H20.9704C20.8162 13.5623 20.54 13.3065 20.0224 12.8271Z" fill="#FFAF26"/>
</svg>
