<svg width="375" height="812" viewBox="0 0 375 812" fill="none" xmlns="http://www.w3.org/2000/svg">
<g clip-path="url(#clip0_305_1636)">
<path fill-rule="evenodd" clip-rule="evenodd" d="M375 0H0V812H375V0ZM265.938 409.6C270.785 455.103 236.929 497.093 189.669 497.985C145.597 498.817 109.601 464.493 109.6 422.032C109.6 371.012 142.938 331.643 166.163 310.407C178.523 299.106 197.85 299.241 210.198 310.555C231.488 330.06 261.159 364.729 265.938 409.6Z" fill="white"/>
<path d="M-1228.26 283.582C-1148.42 283.582 -1094.92 466.794 -1024.42 466.794C-953.917 466.794 -1054.15 147.023 -702.525 147.023C-488.512 147.023 -450.267 393.841 -237.907 393.841C1.60955 393.841 35.5854 111.4 269.158 111.4C499.327 111.4 685.341 398.935 994.505 398.935" stroke="#EAF2FF" stroke-opacity="0.6" stroke-width="0.5" stroke-miterlimit="10"/>
<path d="M-1228.57 289.595C-1185.73 289.595 -1148.37 319.039 -1115.03 361.938C-1079.54 407.616 -1050.84 473.05 -1012.91 473.05C-941.708 473.05 -1033 144.62 -687.2 144.62C-475.849 144.62 -434.454 391.449 -225.698 399.765C-134.582 403.386 -73.1835 367.065 -19.7247 317.223C65.4922 237.771 129.23 126.947 268.161 120.114C397.744 113.825 514.153 202.612 653.827 281.068C754.89 337.831 859.456 393.321 988.818 393.321" stroke="#EAF2FF" stroke-opacity="0.6" stroke-width="0.5" stroke-miterlimit="10"/>
<path d="M-1228.83 295.596C-1181.9 295.596 -1139.73 311.31 -1104.37 352.658C-1066.49 396.952 -1040.94 479.317 -1001.35 479.317C-929.455 479.317 -1011.81 142.206 -671.831 142.206C-463.163 142.206 -418.498 389.145 -213.423 405.678C-123.216 412.965 -62.1612 382.014 -9.58949 333.7C73.8199 257.094 133.122 142.494 267.296 128.929C392.344 116.338 506.081 196.278 648.183 271.777C752.04 326.934 853.557 387.817 983.251 387.817" stroke="#EAF2FF" stroke-opacity="0.6" stroke-width="0.5" stroke-miterlimit="10"/>
<path d="M-1229.12 301.61C-1178.11 301.61 -1131.08 303.581 -1093.74 343.39C-1053.47 386.278 -1031.07 485.586 -989.823 485.586C-917.214 485.586 -990.643 139.803 -656.495 139.803C-450.511 139.803 -402.475 386.909 -201.17 411.603C-111.817 422.566 -51.1614 396.964 0.534268 350.212C82.1141 276.418 137.081 158.097 266.287 137.688C386.81 118.863 497.919 189.878 642.394 262.376C749.068 315.906 847.536 382.214 977.551 382.214" stroke="#EAF2FF" stroke-opacity="0.6" stroke-width="0.5" stroke-miterlimit="10"/>
<path d="M-1229.39 307.59C-1174.31 307.59 -1122.42 295.852 -1083.1 334.166C-1040.43 375.614 -1021.21 491.853 -978.279 491.853C-904.972 491.853 -969.475 137.389 -641.182 137.389C-437.881 137.389 -386.407 384.783 -188.95 417.55C-100.418 432.233 -40.2059 411.947 10.647 366.733C90.4194 295.774 140.984 173.633 265.344 146.481C381.332 121.311 489.835 183.477 636.672 253.041C746.185 304.921 841.548 376.677 971.907 376.677" stroke="#EAF2FF" stroke-opacity="0.6" stroke-width="0.5" stroke-miterlimit="10"/>
<path d="M-1229.68 313.637C-1170.5 313.637 -1113.74 288.167 -1072.47 324.832C-1027.37 364.94 -1011.32 498.122 -966.747 498.122C-892.741 498.122 -948.306 134.987 -625.802 134.987C-425.195 134.987 -370.206 382.78 -176.708 423.442C-88.9407 441.879 -29.228 426.863 20.7379 383.2C98.7471 315.065 144.898 189.104 264.39 155.219C375.854 123.759 481.73 176.978 630.939 243.63C743.324 293.859 835.571 371.075 966.263 371.075" stroke="#EAF2FF" stroke-opacity="0.6" stroke-width="0.5" stroke-miterlimit="10"/>
<path d="M-1229.97 319.637C-1166.7 319.637 -1105.05 280.382 -1061.82 315.562C-1014.28 354.264 -1001.45 504.388 -955.215 504.388C-880.499 504.388 -927.127 132.572 -610.466 132.572C-412.532 132.572 -353.984 380.896 -164.422 429.343C-77.3973 451.601 -18.1945 441.801 30.8842 399.677C106.986 334.343 148.802 204.683 263.448 163.966C370.366 126.216 473.757 170.466 625.218 234.249C740.474 282.796 829.594 365.493 960.619 365.493" stroke="#EAF2FF" stroke-opacity="0.6" stroke-width="0.5" stroke-miterlimit="10"/>
<path d="M-1230.25 325.65C-1162.91 325.65 -1096.33 272.63 -1051.19 306.282C-1001.19 343.578 -991.575 510.644 -943.682 510.644C-868.279 510.644 -905.981 130.169 -595.119 130.169C-399.88 130.169 -337.717 379.146 -152.169 435.278C-65.8654 461.389 -7.21705 456.761 41.0078 416.176C115.302 353.688 152.716 220.241 262.494 172.747C364.887 128.696 465.75 163.954 619.485 224.892C737.646 271.733 823.617 359.923 954.974 359.923" stroke="#EAF2FF" stroke-opacity="0.6" stroke-width="0.5" stroke-miterlimit="10"/>
<path d="M-1230.54 331.664C-1159.1 331.664 -1087.59 264.868 -1040.55 297.015C-988.07 332.882 -981.705 516.88 -932.15 516.88C-855.993 516.88 -884.823 127.767 -579.772 127.767C-387.217 127.767 -321.405 377.541 -139.916 441.148C-54.3106 471.168 3.76108 471.655 51.121 432.621C123.53 372.946 156.619 235.734 261.541 181.451C359.41 131.111 457.811 157.344 613.763 215.469C734.83 260.583 817.651 354.298 949.33 354.298" stroke="#EAF2FF" stroke-opacity="0.6" stroke-width="0.5" stroke-miterlimit="10"/>
<path d="M-1230.79 337.677C-1155.28 337.677 -1078.88 257.094 -1029.9 287.735C-974.919 322.174 -971.803 523.18 -920.584 523.18C-843.762 523.18 -863.599 125.353 -564.414 125.353C-374.531 125.353 -305.093 376.068 -127.64 447.116C-42.7228 481.112 14.7499 486.66 61.2672 449.165C83.0295 431.621 100.814 406.071 117.944 377.332M943.708 348.783C811.697 348.783 732.047 249.52 608.053 206.156C449.827 150.811 353.954 133.636 260.62 190.266C205.039 224.188 171.459 282.76 140.5 337.877" stroke="#EAF2FF" stroke-opacity="0.6" stroke-width="0.5" stroke-miterlimit="10"/>
<path d="M-1231.1 343.689C-1151.51 343.689 -1070.09 249.31 -1019.31 278.466C-961.824 311.443 -961.979 529.448 -909.097 529.448C-831.575 529.448 -842.476 122.95 -549.112 122.95C-361.923 122.95 -288.838 374.74 -115.443 453.041C-31.1688 491.067 25.6721 501.609 71.3466 465.653C85.5867 454.442 97.924 439.329 109.385 421.81M937.997 343.258C805.653 343.258 729.196 238.436 602.264 196.821C441.832 144.189 348.432 136.105 259.622 199.036C221.747 226.03 195.075 265.191 172.362 305.97" stroke="#EAF2FF" stroke-opacity="0.6" stroke-width="0.5" stroke-miterlimit="10"/>
<path d="M-1231.38 349.669C-1147.7 349.669 -1061.33 241.492 -1008.65 269.164C-948.661 300.691 -952.099 535.693 -897.542 535.693C-819.311 535.693 -821.285 120.513 -533.743 120.513C-349.238 120.513 -272.537 373.51 -103.168 458.931C-19.6366 501.011 36.65 516.514 81.4817 482.131C93.3635 473.01 103.767 460.812 113.352 446.5M932.398 337.61C799.721 337.61 726.457 227.251 596.575 187.386C433.904 137.522 342.976 138.552 258.702 207.773C228.2 232.973 205.706 266.584 186.719 302.028" stroke="#EAF2FF" stroke-opacity="0.6" stroke-width="0.5" stroke-miterlimit="10" stroke-linecap="square"/>
<path d="M-1231.67 355.703C-1143.9 355.703 -1052.56 233.695 -998.017 259.917C-935.499 289.96 -942.207 541.971 -886.021 541.971C-807.08 541.971 -800.127 118.132 -518.418 118.132C-336.563 118.132 -256.314 372.458 -90.9255 464.877C-8.10374 511.153 47.595 531.507 91.595 498.64C103.133 490.022 113.118 478.121 122.219 463.92M926.743 332.061C793.767 332.061 723.675 216.044 590.843 178.04C425.987 130.866 337.488 141.043 257.737 216.553C232.364 240.725 213.131 271.131 196.932 303.208" stroke="#EAF2FF" stroke-opacity="0.6" stroke-width="0.5" stroke-miterlimit="10" stroke-linecap="square"/>
<path d="M-1231.9 361.717C-1140.06 361.717 -1043.74 225.878 -987.338 250.638C-922.292 279.197 -932.294 548.239 -874.433 548.239C-794.794 548.239 -778.904 115.718 -502.961 115.718C-323.822 115.718 -240.014 371.517 -78.5616 470.791C3.49503 521.275 58.6505 546.456 101.819 515.085C114.126 506.158 124.467 493.021 133.742 477M921.21 326.447C787.868 326.447 721.014 204.805 585.221 168.627C418.169 124.123 332.121 143.468 256.906 225.28C235.469 248.745 218.919 276.988 204.99 306.668" stroke="#EAF2FF" stroke-opacity="0.6" stroke-width="0.5" stroke-miterlimit="10"/>
<path d="M-1232.23 367.73C-1136.3 367.73 -1035.01 218.038 -976.749 241.359C-909.108 268.412 -922.414 554.507 -862.934 554.507C-782.597 554.507 -757.769 113.316 -487.714 113.316C-311.27 113.316 -223.98 370.643 -66.4087 476.716C14.905 531.452 69.4838 561.395 111.843 531.63C125.692 521.888 136.77 506.127 146.509 486.469M915.465 320.978C781.802 320.978 718.152 193.632 579.399 159.304C410.163 117.435 326.543 145.994 255.852 234.084C237.58 256.993 223.293 283.663 211.275 311.547" stroke="#EAF2FF" stroke-opacity="0.6" stroke-width="0.5" stroke-miterlimit="10"/>
<path d="M-1232.51 373.732C-1132.5 373.732 -1026.26 210.198 -966.115 232.09C-896.001 257.615 -912.545 560.775 -851.402 560.775C-770.355 560.775 -736.6 110.913 -472.378 110.913C-298.607 110.913 -207.912 369.878 -54.1556 482.629C26.3596 541.684 80.4062 576.333 121.956 548.118C137.786 537.37 149.586 517.778 159.743 492.895M909.821 315.341C775.825 315.341 715.402 182.381 573.666 149.925C402.257 110.68 321.065 148.463 254.909 242.854C239.349 265.183 227.061 290.477 216.735 316.784" stroke="#EAF2FF" stroke-opacity="0.6" stroke-width="0.5" stroke-miterlimit="10"/>
<path d="M-1232.8 379.745C-1128.71 379.745 -1017.44 202.347 -955.481 222.811C-882.827 246.818 -902.72 567.043 -839.87 567.043C-758.123 567.043 -715.432 108.499 -457.031 108.499C-285.954 108.499 -191.933 369.192 -41.9135 488.553C37.7701 551.949 91.3176 591.272 132.08 564.618C150.071 552.848 162.267 528.215 172.596 496.597M904.177 309.805C769.848 309.805 712.641 171.12 567.944 140.557C394.35 103.903 315.576 150.933 253.956 251.613C240.835 273.177 230.373 297.049 221.582 321.754" stroke="#EAF2FF" stroke-opacity="0.6" stroke-width="0.5" stroke-miterlimit="10"/>
<path d="M-1233.08 385.757C-1124.91 385.757 -1008.66 194.473 -944.835 213.541C-869.654 235.998 -892.84 573.353 -828.337 573.353C-745.881 573.353 -694.263 106.05 -441.684 106.05C-273.291 106.05 -176.02 368.493 -29.6602 494.421C49.1363 562.202 102.218 606.153 142.215 581.061C162.368 568.408 174.419 537.582 184.583 497.924M898.555 304.156C763.894 304.156 709.914 159.779 562.245 131.143C386.478 97.0586 310.121 153.356 253.025 260.327C242.114 280.896 233.325 303.226 225.935 326.233" stroke="#EAF2FF" stroke-opacity="0.6" stroke-width="0.5" stroke-miterlimit="10"/>
<path d="M-1233.36 391.749C-1121.1 391.749 -999.88 186.578 -934.202 204.241C-856.481 225.148 -882.972 579.545 -816.794 579.545C-733.629 579.545 -673.095 103.66 -426.349 103.66C-260.628 103.66 -160.219 367.963 -17.4075 500.369C60.4464 572.569 113.118 621.071 152.317 597.573C174.43 584.302 185.656 546.371 195.285 497.802M892.944 298.654C757.95 298.654 707.197 148.541 556.545 121.843C378.604 90.2609 304.676 155.849 252.115 269.121C243.148 288.539 235.854 309.279 229.713 330.558" stroke="#EAF2FF" stroke-opacity="0.6" stroke-width="0.5" stroke-miterlimit="10"/>
<path d="M-1233.64 397.772C-1117.3 397.772 -991.098 178.716 -923.567 194.994C-843.318 214.328 -873.092 585.889 -805.262 585.889C-721.409 585.889 -651.927 101.334 -411.002 101.334C-247.998 101.334 -144.451 367.497 -5.15436 506.359C71.7238 582.999 123.996 636.086 162.43 614.149C186.263 600.544 195.963 554.622 204.737 496.41M887.278 293.116C751.951 293.116 704.425 137.256 550.801 112.507C370.687 83.4832 299.176 158.362 251.139 277.957C243.916 296.037 237.98 315.084 232.972 334.551" stroke="#EAF2FF" stroke-opacity="0.6" stroke-width="0.5" stroke-miterlimit="10"/>
<path d="M-1233.93 403.785C-1113.51 403.785 -982.327 170.831 -912.933 185.714C-830.145 203.431 -863.223 592.112 -793.729 592.112C-709.167 592.112 -630.725 98.875 -395.644 98.875C-235.301 98.875 -128.783 366.932 7.10956 512.239C82.9565 593.341 134.874 650.946 172.564 630.593C197.779 616.977 205.269 562.468 212.9 494.276M881.611 287.479C745.952 287.479 701.641 125.85 545.057 103.094C362.769 76.5729 293.687 160.82 250.185 286.671C244.491 303.243 239.763 320.501 235.759 338.076" stroke="#EAF2FF" stroke-opacity="0.6" stroke-width="0.5" stroke-miterlimit="10"/>
<path d="M-1234.22 409.798C-1109.7 409.798 -973.533 162.925 -902.299 176.434C-816.983 192.613 -853.354 598.336 -782.197 598.336C-696.936 598.336 -609.59 96.4281 -380.32 96.4281C-222.66 96.4281 -113.203 366.39 19.3403 518.108C94.1116 603.696 145.752 665.785 182.666 647.037C208.954 633.71 213.593 569.995 219.858 491.5M875.956 281.932C740.019 281.932 698.891 114.467 539.313 93.6819C354.841 69.6634 288.186 163.257 249.21 295.408C244.85 310.274 241.188 325.605 238.072 341.168" stroke="#EAF2FF" stroke-opacity="0.6" stroke-width="0.5" stroke-miterlimit="10"/>
<path d="M-1234.5 415.811C-1105.87 415.811 -964.773 155.029 -891.665 167.166C-803.82 181.749 -843.474 604.637 -770.61 604.637C-684.639 604.637 -588.355 94.0471 -364.917 94.0471C-209.941 94.0471 -97.6789 365.924 31.649 524.066C105.289 614.127 156.597 680.69 192.846 663.592C219.881 650.822 221.121 577.459 225.825 488.535M870.334 276.362C734.02 276.362 696.152 103.183 533.603 84.3577C346.979 62.8086 282.731 165.792 248.289 304.212C245.087 317.179 242.362 330.444 240.025 343.873" stroke="#EAF2FF" stroke-opacity="0.6" stroke-width="0.5" stroke-miterlimit="10"/>
<path d="M-1234.78 421.813C-1102.11 421.813 -956.013 147.112 -881.053 157.886C-790.691 170.875 -833.627 610.893 -759.144 610.893C-672.474 610.893 -567.309 91.6443 -349.648 91.6443C-197.322 91.6554 -82.2653 365.426 43.8468 529.979C116.312 624.536 167.364 695.528 202.904 680.059C230.355 668.117 227.719 584.931 230.672 485.66M864.612 270.77C727.966 270.77 693.325 91.7107 527.803 74.9675C338.962 55.8657 277.198 168.229 247.259 312.949C245.037 323.786 243.117 334.798 241.453 345.915" stroke="#EAF2FF" stroke-opacity="0.6" stroke-width="0.5" stroke-miterlimit="10"/>
<path d="M-1235.06 427.826C-1098.3 427.826 -947.242 139.195 -870.397 148.618C-777.507 160.002 -823.724 617.161 -747.589 617.161C-660.221 617.161 -546.074 89.2418 -334.29 89.2418C-184.681 89.2418 -66.9074 364.973 56.0999 535.904C127.356 634.957 178.165 710.334 213.028 696.548C240.599 685.658 233.67 592.416 234.735 482.798M859.024 265.2C722.045 265.2 690.675 80.3055 522.126 65.5998C331.1 48.9231 271.753 170.699 246.36 321.72C244.933 330.27 243.676 338.912 242.57 347.614" stroke="#EAF2FF" stroke-opacity="0.6" stroke-width="0.5" stroke-miterlimit="10"/>
<path d="M-1235.35 433.828C-1094.52 433.828 -938.482 131.266 -859.763 139.327C-764.4 149.094 -813.856 623.418 -736.057 623.418C-647.979 623.418 -524.906 86.8167 -318.943 86.8167C-172.029 86.8167 -51.6053 364.375 68.3525 541.806C138.345 645.332 188.943 725.062 223.14 713.047C250.531 703.398 239.049 600.222 238.03 480.5M853.379 259.619C716.068 259.619 687.847 68.8665 516.404 56.2316C323.183 41.98 266.275 173.168 245.417 330.479C244.628 336.491 243.915 342.541 243.272 348.618" stroke="#EAF2FF" stroke-opacity="0.6" stroke-width="0.5" stroke-miterlimit="10"/>
<path d="M-1235.63 439.851C-1090.71 439.851 -929.722 123.359 -849.129 130.069C-751.215 138.219 -803.976 629.696 -724.525 629.696C-635.737 629.696 -503.737 84.4241 -303.597 84.4241C-159.366 84.4241 -36.3582 363.843 80.6057 547.741C149.356 655.763 199.71 739.811 233.264 729.535C260.253 721.275 243.824 607.923 240.586 478M847.768 254.104C710.102 254.104 685.074 57.4822 510.671 46.907C315.254 35.014 260.786 175.637 244.464 339.248C244.142 342.503 243.84 345.766 243.558 349.037" stroke="#EAF2FF" stroke-opacity="0.6" stroke-width="0.5" stroke-miterlimit="10"/>
<path d="M-1235.91 445.853C-1086.9 445.853 -920.995 115.43 -838.483 120.79C-738.064 127.323 -794.129 635.964 -712.981 635.964C-623.506 635.964 -482.569 82.0103 -288.283 82.0103C-146.724 82.0103 -21.1887 363.278 92.8256 553.654C160.212 666.161 210.455 754.45 243.366 746.035C269.71 739.283 248.165 615.928 242.532 476M842.025 248.479C704.103 248.479 682.28 45.9659 504.927 37.4836C307.304 28.0379 255.287 178.106 243.499 348.008C243.478 348.317 243.457 348.626 243.436 348.935" stroke="#EAF2FF" stroke-opacity="0.6" stroke-width="0.5" stroke-miterlimit="10"/>
<path d="M-1236.19 451.867C-1083.1 451.867 -912.213 107.48 -827.849 111.522C-724.924 116.416 -784.237 642.232 -701.438 642.232C-611.253 642.232 -461.389 79.608 -272.903 79.608C-134.039 79.608 -6.01942 362.681 105.112 559.579C171.134 676.549 221.244 769.013 253.512 762.524C279.145 757.369 252.257 624.267 244 474.5M836.447 242.943C698.148 242.943 679.53 34.4944 499.216 28.1161C302.663 21.1561 251.496 175.39 242.959 348.115" stroke="#EAF2FF" stroke-opacity="0.6" stroke-width="0.5" stroke-miterlimit="10"/>
<path d="M-1236.48 457.879C-1079.31 457.879 -903.464 99.5618 -817.215 102.242C-711.795 105.508 -774.358 648.488 -689.917 648.488C-598.989 648.488 -440.221 77.1933 -257.567 77.1933C-121.386 77.1933 9.07253 362.06 117.354 565.536C181.99 686.979 232 783.518 263.625 779.056C288.099 775.598 255.926 632.991 244.945 473.553M830.803 237.372C692.172 237.372 676.747 23.0548 493.495 18.7914C298.362 14.2465 247.763 171.707 242.067 346.868" stroke="#EAF2FF" stroke-opacity="0.6" stroke-width="0.5" stroke-miterlimit="10"/>
<path d="M-1236.76 463.893C-1075.51 463.893 -894.726 91.5341 -806.581 92.9294C-698.655 94.4575 -764.444 654.723 -678.385 654.723C-586.792 654.723 -419.052 74.7577 -242.232 74.7577C-108.734 74.7577 24.1308 361.374 129.607 571.383C192.813 697.267 242.801 797.782 273.76 795.479C297.136 793.733 259.48 641.886 245.519 472.875M825.181 231.725C686.272 231.725 673.986 11.2289 487.784 9.34638C294.116 6.84774 243.961 167.404 240.805 344.957" stroke="#EAF2FF" stroke-opacity="0.6" stroke-width="0.5" stroke-miterlimit="10"/>
<path d="M-1237.05 469.894C-1071.7 469.894 -885.977 83.6938 -795.947 83.6938C-685.537 83.6938 -754.608 661.023 -666.852 661.023C-574.55 661.023 -397.884 72.3877 -226.885 72.3877C-17.3741 72.3877 203.458 812 283.862 812C306.032 812 262.726 651.212 245.644 472.734M819.515 226.188C680.218 226.188 671.159 0 482.04 0C289.854 0 240.035 162.811 239.147 342.626" stroke="#EAF2FF" stroke-opacity="0.6" stroke-width="0.5" stroke-miterlimit="10"/>
<path d="M-1204.18 458.024C-1204.18 458.024 -1059.25 570.741 -886.73 570.741C-753.477 570.741 -585.305 285.276 -374.675 285.276C-191.212 285.276 -153.843 537.188 100.111 537.188C371.907 537.188 314.977 215.679 385.502 215.679C456.026 215.679 526.484 448.932 671.724 448.932" stroke="#EAF2FF" stroke-opacity="0.6" stroke-miterlimit="10"/>
<path d="M-1207.64 462.619C-1207.64 462.619 -1136.78 518.485 -1034.9 550.587C-990.543 564.462 -941.221 573.52 -889.769 571.627C-836.31 569.689 -778.072 521.607 -712.449 468.377C-614.258 388.692 -503.027 295.862 -376.594 295.862C-227.273 295.862 -176.996 449.231 -23.6504 509.271C11.1016 522.958 50.7438 532.094 97.7156 532.725C203.779 534.132 260.975 487.036 295.317 427.826C347.157 338.473 343.298 220.662 386.577 218.536C426.297 216.62 465.85 287.923 520.573 349.979C563.675 398.857 613.985 442.83 675.316 442.83" stroke="#EAF2FF" stroke-opacity="0.6" stroke-miterlimit="10"/>
<path d="M-1211.06 467.125C-1211.06 467.125 -1140.1 524.143 -1037.58 554.961C-992.628 568.47 -943.605 576.177 -892.807 572.457C-839.404 568.548 -782.142 518.518 -716.23 467.258C-617.03 389.987 -505.411 306.482 -378.512 306.482C-229.269 306.482 -181.132 446.163 -26.0455 504.199C12.7394 519.076 53.7868 527.218 95.3208 528.273C199.943 531.086 258.225 487.213 294.086 429.542C347.401 343.777 343.675 225.645 387.653 221.448C427.328 217.661 466.826 286.128 523.069 345.571C568.2 393.265 619.618 436.795 678.909 436.795" stroke="#EAF2FF" stroke-opacity="0.6" stroke-miterlimit="10"/>
<path d="M-1214.5 471.677C-1214.5 471.677 -1143.31 529.725 -1040.27 559.369C-994.746 572.469 -946.011 578.858 -895.845 573.321C-842.475 567.419 -786.189 515.462 -720.023 466.074C-619.803 391.284 -507.806 317.047 -380.419 317.047C-231.265 317.047 -185.257 442.632 -28.4294 499.084C6.79952 511.764 46.3197 521.896 92.9256 523.79C196.051 527.975 255.442 487.38 292.844 431.215C347.567 349.049 344.019 230.629 388.729 224.273C428.338 218.647 467.869 284.225 525.552 341.076C572.779 387.585 625.251 430.672 682.491 430.672" stroke="#EAF2FF" stroke-opacity="0.6" stroke-miterlimit="10"/>
<path d="M-1217.94 476.228C-1217.94 476.228 -1146.52 535.305 -1042.94 563.786C-996.853 576.465 -948.317 581.504 -898.884 574.173C-845.525 566.267 -790.214 512.405 -723.804 464.933C-622.553 392.578 -510.157 327.621 -382.338 327.621C-233.261 327.621 -189.394 439.408 -30.8247 493.979C4.65921 506.159 44.0796 516.779 90.5192 519.315C192.258 524.852 252.581 487.6 291.591 432.941C347.634 354.386 344.34 235.699 389.793 227.162C429.324 219.731 468.989 282.352 528.036 336.624C577.403 382.025 630.873 424.603 686.073 424.603" stroke="#EAF2FF" stroke-opacity="0.6" stroke-miterlimit="10"/>
<path d="M-1221.38 480.779C-1221.38 480.779 -1149.79 540.864 -1045.62 568.26C-998.971 580.507 -950.646 584.184 -901.933 575.092C-848.552 565.126 -794.262 509.426 -727.585 463.859C-625.281 393.952 -512.53 338.274 -384.256 338.274C-235.268 338.274 -193.596 436.275 -33.1979 488.951C2.48566 500.678 41.8729 511.73 88.1351 514.908C188.422 521.795 249.698 487.91 290.371 434.669C347.622 359.712 344.706 240.794 390.879 230.03C430.322 220.85 470.208 280.437 530.597 332.172C582.16 376.389 636.572 418.546 689.732 418.546" stroke="#EAF2FF" stroke-opacity="0.6" stroke-miterlimit="10"/>
<path d="M-1224.8 485.331C-1224.8 485.331 -1153.02 546.423 -1048.3 572.623C-1001.08 584.439 -952.941 586.709 -904.972 575.945C-851.557 563.875 -798.331 506.337 -731.366 462.619C-627.997 395.159 -514.903 348.761 -386.174 348.761C-237.264 348.761 -197.788 432.986 -35.5819 483.769C0.312326 495.009 39.6441 506.514 85.7399 510.346C135.08 514.442 175.281 508.901 208.446 495.876M693.258 412.323C642.15 412.323 586.84 370.642 533.026 327.599C471.484 278.377 431.309 221.88 391.955 232.777C344.961 245.799 347.489 364.895 289.129 436.264C273.711 455.112 255.678 471.135 234.216 483.5" stroke="#EAF2FF" stroke-opacity="0.6" stroke-miterlimit="10"/>
<path d="M-1228.24 489.882C-1228.24 489.882 -1156.24 551.982 -1050.98 577.042C-1003.18 588.425 -955.281 589.223 -908.01 576.754C-854.562 562.635 -802.29 503.303 -735.125 461.512C-630.67 396.51 -517.254 359.38 -388.048 359.38C-239.215 359.38 -201.946 429.819 -37.9326 478.698C-1.80553 489.461 37.4707 501.41 83.3892 505.894C126.285 510.09 162.514 507.193 193.4 498.328M696.896 406.188C647.828 406.188 591.686 364.984 535.566 323.137C472.914 276.395 432.329 223.065 393.075 235.656C345.305 250.971 347.312 370.199 287.932 437.98C274.457 453.366 259.227 466.573 241.799 477.227" stroke="#EAF2FF" stroke-opacity="0.6" stroke-miterlimit="10"/>
<path d="M-1231.68 494.433C-1231.68 494.433 -1159.47 557.552 -1053.66 581.46C-1005.29 592.412 -957.588 591.769 -911.048 577.617C-857.556 561.361 -806.282 500.269 -738.94 460.404C-633.364 397.883 -519.649 370 -390.011 370C-241.256 370 -206.193 426.685 -40.361 473.637C-4.01211 483.924 35.1753 496.304 80.9496 501.465C119.712 505.833 153.224 504.59 182.437 498.321M700.444 400.175C653.416 400.175 596.476 359.336 538.005 318.696C474.245 274.38 433.272 224.305 394.107 238.535C345.549 256.186 346.935 375.481 286.646 439.708C274.204 452.961 260.465 464.353 245.144 473.706" stroke="#EAF2FF" stroke-opacity="0.6" stroke-miterlimit="10"/>
<path d="M-1235.11 498.985C-1235.11 498.985 -1162.7 563.056 -1056.34 585.879C-1007.4 596.388 -959.872 594.239 -914.087 578.482C-860.539 560.067 -810.274 497.28 -742.721 459.297C-636.037 399.246 -522.056 380.609 -391.929 380.609C-243.252 380.609 -210.396 423.541 -42.7452 468.566C-6.15244 478.388 32.9464 491.189 78.5543 497.025C114.295 501.593 145.75 501.56 173.641 497.174M704.036 394.096C659.06 394.096 601.377 353.645 540.511 314.245C475.719 272.31 434.27 225.557 395.193 241.404C345.859 261.424 346.502 380.709 285.415 441.436C273.788 452.99 261.183 462.921 247.41 471.163" stroke="#EAF2FF" stroke-opacity="0.6" stroke-miterlimit="10"/>
<path d="M-1238.55 503.591C-1238.55 503.591 -1165.92 568.637 -1059.04 590.352C-1009.51 600.414 -962.197 596.76 -917.102 579.389C-863.511 558.759 -814.221 494.333 -746.48 458.178C-638.653 400.596 -524.384 391.217 -393.859 391.217C-245.27 391.217 -214.62 420.406 -45.1402 463.505C-8.35888 472.851 30.7067 486.061 76.1373 492.573C109.443 497.332 139.18 498.269 165.923 495.388M707.618 387.961C664.683 387.961 606.301 347.864 542.995 309.738C477.206 270.128 435.257 226.775 396.258 244.227C346.17 266.617 346.026 385.835 284.162 443.151C273.206 453.301 261.512 462.018 248.946 469.301" stroke="#EAF2FF" stroke-opacity="0.6" stroke-miterlimit="10"/>
<path d="M-1241.98 508.086C-1241.98 508.086 -1169.13 574.096 -1061.7 594.715C-1011.6 604.337 -964.518 599.144 -920.163 580.197C-866.516 557.33 -818.213 491.288 -750.284 456.993C-641.315 401.958 -526.779 401.714 -395.81 401.714C-247.288 401.714 -218.867 417.217 -47.5577 458.322C-10.5657 467.181 28.4334 480.823 73.7087 488.021C104.988 492.994 133.261 494.744 159 493.105M711.167 381.826C670.282 381.826 611.224 342.039 545.434 305.219C478.736 267.901 436.21 228.026 397.289 247.039C346.447 271.888 345.294 390.917 282.887 444.757C272.546 453.68 261.654 461.342 250.115 467.777" stroke="#EAF2FF" stroke-opacity="0.6" stroke-miterlimit="10"/>
<path d="M-1245.41 512.638C-1245.41 512.638 -1172.34 579.599 -1064.38 599.133C-1013.71 608.302 -966.802 601.492 -923.201 581.061C-869.521 555.924 -822.161 488.309 -754.065 455.853C-643.932 403.353 -529.152 412.345 -397.684 412.345C-249.239 412.345 -223.037 414.083 -49.8973 453.261C-12.6835 461.677 26.238 475.685 71.3581 483.592C101.063 488.79 128.184 491.234 153.13 490.622M714.793 375.758C675.96 375.758 616.269 336.214 547.974 300.779C480.377 265.698 437.22 229.354 398.409 249.918C346.824 277.225 344.618 396.011 281.7 446.484C271.855 454.384 261.601 461.16 250.867 466.864" stroke="#EAF2FF" stroke-opacity="0.6" stroke-miterlimit="10"/>
<path d="M-1248.84 517.189C-1248.84 517.189 -1175.56 585.103 -1067.07 603.562C-1015.81 612.277 -969.164 603.861 -926.24 581.925C-872.526 554.529 -826.053 485.341 -757.857 454.712C-646.527 404.759 -531.525 422.931 -399.603 422.931C-251.236 422.931 -227.262 410.96 -52.2925 448.167C-14.857 456.129 24.009 470.514 68.9627 479.118C97.3832 484.558 123.559 487.627 147.86 487.906M718.385 369.656C681.593 369.656 621.304 330.345 550.458 296.305C482.007 263.406 438.295 230.628 399.485 252.775C347.135 282.552 343.808 400.994 280.458 448.19C271.036 455.207 261.313 461.218 251.239 466.282" stroke="#EAF2FF" stroke-opacity="0.6" stroke-miterlimit="10"/>
<path d="M-1252.28 521.741C-1252.28 521.741 -1178.76 590.607 -1069.74 607.97C-1017.91 616.231 -971.515 606.176 -929.278 582.778C-875.553 553.012 -830.045 482.397 -761.639 453.583C-649.121 406.188 -533.898 433.518 -401.521 433.518C-253.231 433.518 -231.486 407.849 -54.6765 443.074C-17.0302 450.582 21.7692 465.332 66.5677 474.656C93.9829 480.361 119.425 484.011 143.238 485.078M721.978 363.555C687.226 363.555 626.36 324.421 552.953 291.832C483.659 261.07 439.371 232.013 400.56 255.622C347.545 287.912 342.932 405.923 279.216 449.885C270.202 456.107 260.977 461.43 251.5 465.917" stroke="#EAF2FF" stroke-opacity="0.6" stroke-miterlimit="10"/>
<path d="M-1255.71 526.292C-1255.71 526.292 -1181.98 596.055 -1072.42 612.388C-1020.01 620.14 -973.866 608.49 -932.316 583.597C-878.603 551.484 -833.981 479.406 -765.42 452.398C-651.705 407.594 -536.271 444.059 -403.439 444.059C-255.239 444.059 -235.711 404.704 -57.0607 437.947C-19.2038 444.99 19.5402 460.094 64.1723 470.138C90.7814 476.127 115.642 480.331 139.089 482.121M725.571 357.409C692.859 357.409 631.438 318.386 555.436 287.303C485.322 258.633 440.391 233.319 401.647 258.423C347.933 293.238 341.989 410.717 277.974 451.534C269.339 457.041 260.564 461.747 251.616 465.714" stroke="#EAF2FF" stroke-opacity="0.6" stroke-miterlimit="10"/>
<path d="M-1259.15 530.844C-1259.15 530.844 -1185.18 601.57 -1075.07 616.807C-1022.08 624.138 -976.206 610.783 -935.355 584.495C-881.663 549.979 -837.896 476.528 -769.201 451.313C-654.267 409.112 -538.644 454.691 -405.358 454.691C-257.235 454.691 -239.936 401.66 -59.3896 432.898C-21.3109 439.542 17.3554 454.946 61.8323 465.72C87.9289 472.047 112.455 476.809 135.751 479.267M729.241 351.353C698.58 351.353 636.617 312.396 558.02 282.874C487.052 256.242 441.511 234.748 402.778 261.325C348.399 298.665 341.035 415.535 276.798 453.274C268.481 458.161 260.079 462.33 251.564 465.839" stroke="#EAF2FF" stroke-opacity="0.6" stroke-miterlimit="10"/>
<path d="M-1262.58 535.394C-1262.58 535.394 -1188.4 607.051 -1077.77 621.225C-1024.2 628.09 -978.623 613.052 -938.382 585.358C-884.745 548.427 -841.81 473.615 -772.982 450.172C-656.828 410.573 -541.072 465.287 -407.276 465.287C-259.23 465.287 -244.172 398.58 -61.8287 427.803C-23.5393 433.938 15.0718 449.729 59.3824 461.257C85.11 467.947 109.42 473.276 132.67 476.383M732.746 345.25C704.126 345.25 641.64 306.293 560.427 278.399C488.705 253.761 442.531 236.076 403.798 264.17C348.765 304.079 339.927 420.218 275.502 454.978C267.521 459.282 259.5 462.949 251.415 466.032" stroke="#EAF2FF" stroke-opacity="0.6" stroke-miterlimit="10"/>
<path d="M-1266.01 539.946C-1266.01 539.946 -1191.6 612.511 -1080.46 625.644C-1026.3 632.045 -981.04 615.313 -941.431 586.211C-887.862 546.856 -845.736 470.714 -776.775 449.043C-659.389 412.135 -543.401 475.908 -409.194 475.908C-261.226 475.908 -248.408 395.547 -64.2131 422.755C-25.713 428.447 12.8426 444.548 56.9868 456.828C82.3986 463.898 106.54 469.794 129.791 473.541M736.338 339.194C709.758 339.194 646.752 300.193 562.91 273.971C490.39 251.281 443.618 237.495 404.874 267.061C349.208 309.539 338.851 424.87 274.259 456.717C266.548 460.513 258.83 463.74 251.085 466.443" stroke="#EAF2FF" stroke-opacity="0.6" stroke-miterlimit="10"/>
<path d="M-1269.45 544.497C-1269.45 544.497 -1194.82 617.981 -1083.16 630.062C-1028.42 635.987 -983.469 617.56 -944.481 587.075C-891 545.261 -849.65 467.835 -780.589 447.903C-661.94 413.685 -545.808 486.461 -411.146 486.461C-263.256 486.461 -252.666 392.457 -66.6417 417.616C-27.9198 422.854 10.5804 439.276 54.5583 452.321C79.7636 459.799 103.834 466.292 127.181 470.688M739.908 333.048C715.38 333.048 651.886 293.936 565.394 269.442C492.075 248.679 444.748 238.868 405.938 269.873C349.663 314.921 337.731 429.354 273.006 458.367C265.565 461.702 258.144 464.529 250.726 466.888" stroke="#EAF2FF" stroke-opacity="0.6" stroke-miterlimit="10"/>
<path d="M-1272.93 549.047C-1272.93 549.047 -1198.07 623.428 -1085.86 634.479C-1030.55 639.927 -985.941 619.807 -947.552 587.97C-894.204 543.676 -853.597 465.054 -784.381 446.805C-664.523 415.29 -548.191 497.079 -413.075 497.079C-265.262 497.079 -256.901 389.444 -69.0361 412.566C-30.1036 417.349 8.35213 434.07 52.1526 447.89C77.2917 455.823 101.423 462.947 125 467.995M743.48 326.989C720.992 326.989 656.954 287.689 567.856 264.978C493.75 246.086 445.803 240.228 406.992 272.729C350.074 320.367 336.545 433.816 271.71 460.071C264.553 462.974 257.434 465.427 250.342 467.465" stroke="#EAF2FF" stroke-opacity="0.6" stroke-miterlimit="10"/>
<path d="M-1276.26 553.599C-1276.26 553.599 -1201.17 628.899 -1088.45 638.865C-1032.55 643.826 -988.303 622 -950.491 588.758C-897.265 541.994 -857.412 462.077 -788.063 445.599C-666.963 416.808 -550.465 507.611 -414.894 507.611C-267.159 507.611 -261.038 386.345 -71.3205 407.407C-32.1773 411.747 6.23415 428.745 49.8461 443.351C74.8819 451.737 99.0447 459.496 122.837 465.212M747.105 320.878C726.658 320.878 662.055 281.368 570.384 260.461C495.458 243.419 446.911 241.569 408.101 275.532C350.705 325.772 335.558 438.136 270.601 461.733C263.61 464.272 256.675 466.402 249.782 468.157" stroke="#EAF2FF" stroke-opacity="0.6" stroke-miterlimit="10"/>
<path d="M-1279.75 558.151C-1279.75 558.151 -1204.44 634.325 -1091.18 643.317C-1034.71 647.802 -990.831 624.293 -953.573 589.655C-900.569 540.389 -861.37 459.297 -791.91 444.492C-669.557 418.48 -552.893 518.23 -416.878 518.23C-269.221 518.23 -265.329 383.344 -73.771 402.346C-34.4171 406.255 3.96117 423.519 47.3846 438.889C72.5716 447.823 97.0105 456.307 121.274 462.721M750.676 314.677C732.28 314.677 667.189 274.967 572.858 255.987C497.121 240.739 448.065 242.954 409.166 278.389C351.149 331.232 334.383 442.388 269.292 463.428C262.522 465.611 255.819 467.43 249.172 468.914" stroke="#EAF2FF" stroke-opacity="0.6" stroke-miterlimit="10"/>
<path d="M-1283.19 562.702C-1283.19 562.702 -1207.65 639.796 -1093.87 647.735C-1036.81 651.733 -993.326 626.485 -956.623 590.519C-903.807 538.739 -865.285 456.44 -795.692 443.362C-672.108 420.108 -555.266 528.817 -418.786 528.817C-271.206 528.817 -269.554 380.332 -76.1443 397.252C-36.5798 400.718 1.76511 418.237 45.0001 434.448C70.3028 443.938 94.9959 453.163 119.73 460.299M754.28 308.642C737.924 308.642 672.301 268.578 575.363 251.536C498.795 238.081 449.218 244.382 410.252 281.268C351.681 336.702 333.296 446.707 268.072 465.155C261.465 467.024 254.933 468.564 248.468 469.802" stroke="#EAF2FF" stroke-opacity="0.6" stroke-miterlimit="10"/>
<path d="M-1286.61 567.252C-1286.61 567.252 -1210.83 645.188 -1096.54 652.153C-1038.88 655.663 -995.833 628.71 -959.661 591.37C-907.079 537.11 -869.199 453.627 -799.474 442.221C-674.648 421.812 -557.65 539.402 -420.705 539.402C-273.225 539.402 -273.779 377.319 -78.5286 392.124C-38.7422 395.147 -0.430653 412.909 42.6047 429.94C68.0884 440.028 93.1147 450.047 118.424 457.939M757.872 302.517C743.557 302.517 677.39 262.088 577.858 247.039C500.436 235.367 450.371 245.743 411.327 284.091C352.213 342.138 332.253 450.825 266.83 466.804C260.395 468.376 254.043 469.654 247.764 470.66" stroke="#EAF2FF" stroke-opacity="0.6" stroke-miterlimit="10"/>
<path d="M-1290.05 571.804C-1290.05 571.804 -1214.07 650.626 -1099.22 656.572C-1041.01 659.584 -998.316 630.937 -962.699 592.235C-910.371 535.428 -873.113 450.826 -803.254 441.092C-677.198 423.519 -560.023 549.989 -422.623 549.989C-275.209 549.989 -278.004 374.33 -80.9235 387.076C-40.9154 389.656 -2.62599 407.65 40.2098 425.523C65.8696 436.224 91.2411 447.065 117.163 455.743M761.454 296.417C749.19 296.417 682.458 255.577 580.342 242.566C502.067 232.589 451.524 247.139 412.403 286.949C352.779 347.643 331.211 454.978 265.588 468.555C259.267 469.861 253.033 470.9 246.879 471.69" stroke="#EAF2FF" stroke-opacity="0.6" stroke-miterlimit="10"/>
<path d="M-1293.49 576.356C-1293.49 576.356 -1217.29 656.085 -1101.91 660.991C-1043.14 663.505 -1000.89 633.152 -965.738 593.099C-913.687 533.767 -877.028 448.036 -807.036 439.952C-679.759 425.247 -562.396 560.587 -424.541 560.587C-277.205 560.587 -282.228 371.341 -83.3076 381.982C-43.0887 384.131 -4.79923 402.347 37.8148 421.05C63.7509 432.44 89.5865 444.188 116.28 453.707M765.047 290.338C754.823 290.338 687.514 249.045 582.837 238.115C503.674 229.843 452.688 248.546 413.479 289.817C353.344 353.114 330.224 459.043 264.346 470.249C258.115 471.31 251.976 472.125 245.923 472.713" stroke="#EAF2FF" stroke-opacity="0.6" stroke-miterlimit="10"/>
<path d="M-1296.91 580.907C-1296.91 580.907 -1220.5 661.456 -1104.58 665.409C-1045.21 667.48 -1003.47 635.366 -968.776 593.951C-916.981 532.095 -880.965 445.267 -810.828 438.822C-682.332 427.007 -564.77 571.14 -426.449 571.14C-279.202 571.14 -286.454 368.328 -85.6922 376.855C-45.2627 378.571 -6.96212 396.987 35.419 416.554C61.5784 428.629 87.8523 441.298 115.323 451.683M768.639 284.214C760.455 284.214 692.548 242.467 585.32 233.608C505.26 227.03 453.863 249.908 414.554 292.641C353.932 358.561 329.292 463.062 263.115 471.921C256.984 472.745 250.948 473.345 245 473.738" stroke="#EAF2FF" stroke-opacity="0.6" stroke-miterlimit="10"/>
<path d="M-1300.35 585.457C-1300.35 585.457 -1223.72 666.87 -1107.26 669.826C-1047.31 671.343 -1006 637.602 -971.814 594.814C-920.385 530.422 -884.89 442.498 -814.609 437.681C-684.871 428.822 -567.142 581.759 -428.367 581.759C-281.197 581.759 -290.678 365.382 -88.0756 371.793C-47.4243 373.089 -9.135 391.726 33.0244 412.123C59.4472 424.927 86.2297 438.58 114.591 449.883M772.221 278.133C766.089 278.133 697.594 235.799 587.816 229.155C506.835 224.238 455.039 251.324 415.63 295.519C354.52 364.009 328.406 466.992 261.874 473.637C255.821 474.24 249.865 474.638 244 474.848" stroke="#EAF2FF" stroke-opacity="0.6" stroke-miterlimit="10"/>
<path d="M-1303.79 589.964C-1303.79 589.964 -1226.92 672.097 -1109.92 674.245C-1049.39 675.164 -1008.56 639.84 -974.83 595.623C-923.745 528.706 -888.815 439.696 -818.368 436.496C-687.521 430.539 -569.493 592.29 -430.263 592.29C-283.171 592.29 -294.881 362.647 -90.4378 366.655C-49.5758 367.564 -11.2643 386.289 30.6511 407.628C57.2748 421.183 84.5488 435.851 113.82 448.11C113.861 448.127 113.902 448.144 113.942 448.161M775.825 272.032C771.733 272.032 702.573 229.111 590.322 224.682C508.387 221.415 456.237 252.709 416.716 298.365C355.141 369.524 327.596 470.913 260.643 475.342C254.6 475.738 248.657 475.943 242.809 475.971" stroke="#EAF2FF" stroke-opacity="0.6" stroke-miterlimit="10"/>
<path d="M-1307.21 594.56C-1307.21 594.56 -1230.15 677.611 -1112.62 678.719C-1051.52 679.173 -1011.17 642.176 -977.902 596.586C-927.16 527.155 -892.785 437.061 -822.172 435.466C-690.094 432.476 -571.888 602.987 -432.203 602.987C-285.189 602.987 -299.138 359.668 -92.8881 361.672C-51.8598 362.126 -13.4704 381.04 28.1899 403.242C55.108 417.587 82.9733 433.341 113.304 446.614M779.363 265.986C777.311 265.986 707.497 222.478 592.75 220.263C509.862 218.635 457.368 254.148 417.737 301.277C355.696 375.049 326.787 474.877 259.357 477.092C253.327 477.287 247.401 477.304 241.573 477.155" stroke="#EAF2FF" stroke-opacity="0.6" stroke-miterlimit="10"/>
<path d="M-1310.63 599.11C-1310.63 599.11 -1233.34 683.081 -1115.28 683.081C-958.996 683.081 -942.862 434.27 -825.931 434.27C-692.678 434.27 -574.217 613.528 -434.1 613.528C-287.163 613.528 -303.308 356.523 -95.2168 356.523C-26.8415 356.523 33.5264 408.864 112.81 445.038M782.977 259.829C782.977 259.829 712.486 215.723 595.278 215.723C379.569 215.723 369.379 478.73 258.181 478.73C252.184 478.73 246.292 478.565 240.5 478.247" stroke="#EAF2FF" stroke-opacity="0.6" stroke-miterlimit="10"/>
</g>
<defs>
<clipPath id="clip0_305_1636">
<rect width="375" height="812" fill="white"/>
</clipPath>
</defs>
</svg>
