<svg width="20" height="20" viewBox="0 0 20 20" fill="none" xmlns="http://www.w3.org/2000/svg">
<path d="M19.1666 6.79165C19.1666 3.50095 16.499 0.833313 13.2083 0.833313C11.299 0.833313 9.59947 1.73375 8.50903 3.13159C13.1598 3.31139 16.875 7.13849 16.875 11.8333C16.875 11.9344 16.8733 12.0351 16.8698 12.1354L17.1744 12.2169C18.0602 12.4539 18.8706 11.6435 18.6336 10.7577L18.5168 10.3214C18.4225 9.96887 18.4792 9.59647 18.6308 9.26456C18.9749 8.5113 19.1666 7.67386 19.1666 6.79165Z" fill="#007AFF"/>
<path fill-rule="evenodd" clip-rule="evenodd" d="M15.5 11.8333C15.5 15.8834 12.2167 19.1666 8.16665 19.1666C7.0341 19.1666 5.96152 18.9099 5.00392 18.4515C4.6748 18.2939 4.30192 18.2386 3.94942 18.3329L2.82555 18.6336C1.93974 18.8706 1.12935 18.0602 1.36636 17.1744L1.66707 16.0505C1.76139 15.698 1.70607 15.3252 1.5485 14.996C1.09005 14.0384 0.833313 12.9659 0.833313 11.8333C0.833313 7.78322 4.11656 4.49998 8.16665 4.49998C12.2167 4.49998 15.5 7.78322 15.5 11.8333ZM4.95831 12.75C5.46457 12.75 5.87498 12.3396 5.87498 11.8333C5.87498 11.3271 5.46457 10.9166 4.95831 10.9166C4.45205 10.9166 4.04165 11.3271 4.04165 11.8333C4.04165 12.3396 4.45205 12.75 4.95831 12.75ZM8.16665 12.75C8.67291 12.75 9.08331 12.3396 9.08331 11.8333C9.08331 11.3271 8.67291 10.9166 8.16665 10.9166C7.66039 10.9166 7.24998 11.3271 7.24998 11.8333C7.24998 12.3396 7.66039 12.75 8.16665 12.75ZM11.375 12.75C11.8812 12.75 12.2916 12.3396 12.2916 11.8333C12.2916 11.3271 11.8812 10.9166 11.375 10.9166C10.8687 10.9166 10.4583 11.3271 10.4583 11.8333C10.4583 12.3396 10.8687 12.75 11.375 12.75Z" fill="#007AFF"/>
</svg>
