<svg width="20" height="20" viewBox="0 0 20 20" fill="none" xmlns="http://www.w3.org/2000/svg">
<path fill-rule="evenodd" clip-rule="evenodd" d="M11.8333 19.1667H8.16665C4.70968 19.1667 2.9812 19.1667 1.90725 18.0927C0.833313 17.0188 0.833313 15.2903 0.833313 11.8333V8.16668C0.833313 4.70971 0.833313 2.98123 1.90725 1.90729C2.9812 0.833344 4.71878 0.833344 8.19395 0.833344C8.74946 0.833344 9.19459 0.833343 9.56915 0.848616C9.55682 0.921887 9.55036 0.996627 9.55011 1.0722L9.54164 3.6704C9.54156 4.67608 9.54149 5.56485 9.63781 6.28124C9.74221 7.05776 9.98192 7.83417 10.6156 8.46783C11.2493 9.1015 12.0257 9.34121 12.8022 9.44561C13.5186 9.54193 14.4073 9.54186 15.413 9.54178L15.5 9.54177H19.1276C19.1666 10.0315 19.1666 10.6326 19.1666 11.4327V11.8333C19.1666 15.2903 19.1666 17.0188 18.0927 18.0927C17.0188 19.1667 15.2903 19.1667 11.8333 19.1667ZM3.81248 12.2917C3.81248 11.912 4.12028 11.6042 4.49998 11.6042H11.8333C12.213 11.6042 12.5208 11.912 12.5208 12.2917C12.5208 12.6714 12.213 12.9792 11.8333 12.9792H4.49998C4.12028 12.9792 3.81248 12.6714 3.81248 12.2917ZM3.81248 15.5C3.81248 15.1203 4.12028 14.8125 4.49998 14.8125H9.54165C9.92134 14.8125 10.2291 15.1203 10.2291 15.5C10.2291 15.8797 9.92134 16.1875 9.54165 16.1875H4.49998C4.12028 16.1875 3.81248 15.8797 3.81248 15.5Z" fill="#007AFF"/>
<path d="M16.7391 5.98194L13.1102 2.71595C12.0763 1.78547 11.5594 1.32022 10.9251 1.07683L10.9166 3.58344C10.9166 5.74405 10.9166 6.82435 11.5879 7.49556C12.2591 8.16677 13.3394 8.16677 15.5 8.16677H18.7817C18.4494 7.52124 17.8543 6.98568 16.7391 5.98194Z" fill="#007AFF"/>
</svg>
