<svg width="170" height="170" viewBox="0 0 170 170" fill="none" xmlns="http://www.w3.org/2000/svg">
<g clip-path="url(#clip0_481_4421)">
<rect width="170" height="170" fill="#2A7EFD"/>
<path d="M97.7769 30.2131L68.5799 49.4832C65.4442 51.5528 61.7694 52.6563 58.0123 52.6563H44.8784C32.0124 52.6563 21.582 63.0863 21.582 75.9527V94.3608C21.582 107.227 32.012 117.657 44.8784 117.657H58.012C61.7694 117.657 65.4438 118.76 68.5795 120.83L97.7766 140.1C100.413 141.84 103.925 139.949 103.925 136.791V33.5225C103.926 30.364 100.413 28.4733 97.7769 30.2131Z" fill="white"/>
<path d="M97.777 30.2131L68.5799 49.4832C66.7932 50.6625 64.831 51.5268 62.7787 52.0532V118.26C64.831 118.786 66.7929 119.65 68.5799 120.83L97.777 140.1C100.413 141.839 103.926 139.949 103.926 136.791V33.5225C103.926 30.364 100.413 28.4733 97.777 30.2131Z" fill="url(#paint0_linear_481_4421)"/>
<path d="M52.9674 75.2988H39.4764C36.993 75.2988 34.9797 73.2855 34.9797 70.8021C34.9797 68.3186 36.993 66.3053 39.4764 66.3053H52.9671C55.4505 66.3053 57.4638 68.3186 57.4638 70.8021C57.4641 73.2855 55.4508 75.2988 52.9674 75.2988Z" fill="url(#paint1_linear_481_4421)"/>
<path d="M52.9673 89.6533H39.4764C36.9929 89.6533 34.9796 87.64 34.9796 85.1566C34.9796 82.6731 36.9929 80.6598 39.4764 80.6598H52.967C55.4505 80.6598 57.4638 82.6731 57.4638 85.1566C57.4641 87.64 55.4508 89.6533 52.9673 89.6533Z" fill="url(#paint2_linear_481_4421)"/>
<path d="M52.9673 104.008H39.4764C36.9929 104.008 34.9796 101.995 34.9796 99.511C34.9796 97.0276 36.9929 95.0143 39.4764 95.0143H52.967C55.4505 95.0143 57.4638 97.0276 57.4638 99.511C57.4641 101.995 55.4508 104.008 52.9673 104.008Z" fill="url(#paint3_linear_481_4421)"/>
<path d="M124.837 70.0136C119.029 72.7601 112.894 74.409 112.894 74.409C112.894 74.409 115.868 71.0346 119.518 64.9853C122.555 59.9516 123.581 53.6099 127.965 51.1885C131.449 49.2643 135.088 49.7631 137.883 52.6288C141.126 55.9551 140.992 60.9097 138.285 63.871C135.577 66.8323 130.342 67.4109 124.837 70.0136Z" fill="white"/>
<path d="M129.305 81.182C127.219 81.5275 123.959 82.0425 123.959 82.0425C123.959 82.0425 128.734 84.8769 131.343 87.2542C134.185 89.8437 133.937 93.8397 137.657 94.8076C141.644 95.8444 145.464 94.2192 147.299 90.5316C149.508 86.0902 147.981 81.5285 143.633 79.1407C139.156 76.6821 134.344 80.3474 129.305 81.182Z" fill="white"/>
<path d="M120.498 93.1352C117.563 92.932 113.642 93.9565 113.642 93.9565C113.642 93.9565 116.965 95.2838 117.214 98.6459C117.337 100.294 116.746 101.445 117.599 102.861C119.1 105.356 122.429 105.428 124.967 104C127.623 102.506 128.922 99.4674 127.68 96.6847C126.412 93.8428 123.433 93.3384 120.498 93.1352Z" fill="white"/>
</g>
<defs>
<linearGradient id="paint0_linear_481_4421" x1="67.1484" y1="119.102" x2="96.2184" y2="122.95" gradientUnits="userSpaceOnUse">
<stop stop-color="#E9E9E9" stop-opacity="0"/>
<stop offset="1" stop-color="#DDE3F5"/>
</linearGradient>
<linearGradient id="paint1_linear_481_4421" x1="52.6269" y1="76.5069" x2="54.1209" y2="69.0951" gradientUnits="userSpaceOnUse">
<stop stop-color="#E9E9E9" stop-opacity="0"/>
<stop offset="1" stop-color="#DDE3F5"/>
</linearGradient>
<linearGradient id="paint2_linear_481_4421" x1="52.6269" y1="90.8614" x2="54.1209" y2="83.4496" gradientUnits="userSpaceOnUse">
<stop stop-color="#E9E9E9" stop-opacity="0"/>
<stop offset="1" stop-color="#DDE3F5"/>
</linearGradient>
<linearGradient id="paint3_linear_481_4421" x1="52.6269" y1="105.216" x2="54.1209" y2="97.8041" gradientUnits="userSpaceOnUse">
<stop stop-color="#E9E9E9" stop-opacity="0"/>
<stop offset="1" stop-color="#DDE3F5"/>
</linearGradient>
<clipPath id="clip0_481_4421">
<rect width="170" height="170" fill="white"/>
</clipPath>
</defs>
</svg>
