<svg width="20" height="20" viewBox="0 0 20 20" fill="none" xmlns="http://www.w3.org/2000/svg">
<path fill-rule="evenodd" clip-rule="evenodd" d="M0.858826 9.31251C1.21039 4.57101 5.16876 0.833344 10.0001 0.833344C9.23848 0.833343 8.56036 1.1672 8.0025 1.67771C7.44744 2.18566 6.97838 2.89472 6.59899 3.7329C6.21737 4.57602 5.92094 5.56213 5.7203 6.63228C5.55946 7.49012 5.46159 8.39448 5.42896 9.31251H0.858826ZM0.858826 10.6875H5.42896C5.46159 11.6055 5.55946 12.5099 5.7203 13.3677C5.92094 14.4379 6.21737 15.424 6.59899 16.2671C6.97838 17.1053 7.44744 17.8144 8.0025 18.3223C8.56036 18.8328 9.23848 19.1667 10.0001 19.1667C5.16876 19.1667 1.21039 15.429 0.858826 10.6875Z" fill="#007AFF"/>
<path d="M10.0001 2.11241C9.74801 2.11241 9.42234 2.21968 9.04365 2.56622C8.66217 2.91533 8.28026 3.46248 7.94284 4.20793C7.60766 4.94845 7.33549 5.84238 7.1482 6.84135C7.0007 7.62806 6.9092 8.46201 6.87709 9.31251H13.1231C13.091 8.46201 12.9995 7.62806 12.852 6.84136C12.6647 5.84238 12.3925 4.94845 12.0574 4.20794C11.7199 3.46248 11.338 2.91533 10.9565 2.56623C10.5779 2.21968 10.2522 2.11241 10.0001 2.11241Z" fill="#007AFF"/>
<path d="M7.1482 13.1587C7.33549 14.1576 7.60766 15.0516 7.94284 15.7921C8.28026 16.5375 8.66216 17.0847 9.04365 17.4338C9.42234 17.7803 9.74801 17.8876 10.0001 17.8876C10.2522 17.8876 10.5779 17.7803 10.9565 17.4338C11.338 17.0847 11.7199 16.5375 12.0574 15.7921C12.3925 15.0516 12.6647 14.1576 12.852 13.1587C12.9995 12.372 13.091 11.538 13.1231 10.6875H6.87709C6.9092 11.538 7.0007 12.372 7.1482 13.1587Z" fill="#007AFF"/>
<path d="M10.0001 0.833344C10.7617 0.833344 11.4398 1.1672 11.9977 1.67771C12.5528 2.18566 13.0218 2.89472 13.4012 3.7329C13.7828 4.57602 14.0793 5.56214 14.2799 6.63228C14.4407 7.49012 14.5386 8.39448 14.5712 9.31251H19.1414C18.7898 4.57101 14.8314 0.833344 10.0001 0.833344Z" fill="#007AFF"/>
<path d="M14.2799 13.3677C14.0793 14.4379 13.7828 15.424 13.4012 16.2671C13.0218 17.1053 12.5528 17.8144 11.9977 18.3223C11.4398 18.8328 10.7617 19.1667 10.0001 19.1667C14.8314 19.1667 18.7898 15.429 19.1414 10.6875H14.5712C14.5386 11.6055 14.4407 12.5099 14.2799 13.3677Z" fill="#007AFF"/>
</svg>
